<svg xmlns="http://www.w3.org/2000/svg" aria-hidden="true" style="position:absolute;width:0;height:0;overflow:hidden">
    <defs>
        <symbol id="star" viewBox="0 0 35 35">
            <path
                d="M17.5 0L18.8519 13.3391L27.7862 3.3422L21.0394 14.9284L34.1435 12.0922L21.875 17.5L34.1435 22.9078L21.0394 20.0716L27.7862 31.6578L18.8519 21.6609L17.5 35L16.148 21.6609L7.21376 31.6578L13.9605 20.0716L0.85651 22.9078L13.125 17.5L0.85651 12.0922L13.9605 14.9284L7.21376 3.3422L16.148 13.3391L17.5 0Z"
                fill="#FCD043" />
        </symbol>
        <symbol id="arrow-up-and-down" viewBox="0 0 20 12">
            <path
                d="M19.0977 10.8276C19.0977 10.8276 16.3679 10.1702 14.0281 8.19773C11.6883 6.2253 9.73852 2.93792 9.73852 2.93792C9.73852 2.93792 7.7887 6.2253 5.44891 8.19773C3.10913 10.1702 0.379375 10.8276 0.379375 10.8276"
                fill="none" stroke="#FCD043" stroke-width="2" />
        </symbol>
        <symbol id="ellipse" viewBox="0 0 1419 714">
            <path d="M1418 714C1418 320.221 1100.79 1 709.5 1C318.206 1 1 320.221 1 714" fill="none" stroke="#fffcf6"
                stroke-width="2" />
        </symbol>
        <symbol id="label" viewBox="0 0 146 149">
            <g opacity="0.64">
                <path
                    d="M65.2596 143.586L62.0882 142.318C60.6435 141.719 60.1854 140.626 60.6787 139.287C61.2073 137.913 62.3349 137.42 63.7796 138.019L65.9996 138.9L67.1624 135.905L68.1138 136.292L65.2596 143.586ZM65.6825 139.71L63.7796 138.935C62.6873 138.477 62.0177 138.794 61.6654 139.64C61.313 140.485 61.6301 141.155 62.7225 141.613L64.6253 142.388L65.6825 139.71Z"
                    fill="#FFFCF6" />
                <path
                    d="M55.8166 139.358L52.6805 137.42C51.412 136.645 51.0948 135.482 51.7291 134.425C52.2224 133.65 52.9977 133.156 53.9138 133.438C53.2091 132.804 53.4205 132.17 53.7729 131.465C54.1253 130.76 54.6186 130.055 54.5129 129.386L55.4995 130.02C55.57 130.443 55.0062 131.077 54.7243 131.782C54.4424 132.487 54.231 133.121 55.0767 133.685L57.2614 135.024L59.0232 132.205L59.9042 132.733L55.8166 139.358ZM54.9709 134.636C54.1605 134.108 53.3148 133.896 52.7158 134.848C52.3282 135.517 52.3634 136.187 53.1738 136.715L55.3938 138.089L56.8033 135.764L54.9709 134.636Z"
                    fill="#FFFCF6" />
                <path
                    d="M46.901 133.332L42.8839 129.737L43.4829 129.068L46.7248 131.957L48.381 130.09L45.3505 127.412L45.9496 126.742L48.98 129.491L50.7772 127.482L47.5 124.557L48.0991 123.888L52.1514 127.517L46.901 133.332Z"
                    fill="#FFFCF6" />
                <path
                    d="M39.6071 126.39L38.7613 125.263L42.4613 119.307L35.7661 121.351L34.9204 120.224L41.1223 115.431L41.7213 116.242L36.5414 120.224L43.2013 118.215L43.7651 118.92L40.0651 124.804L45.2451 120.823L45.8441 121.633L39.6071 126.39Z"
                    fill="#FFFCF6" />
                <path d="M32.4183 115.961L31.925 115.045L38.8317 111.31L39.325 112.226L32.4183 115.961Z"
                    fill="#FFFCF6" />
                <path
                    d="M32.2763 103.134C34.1087 102.429 35.5182 103.134 36.1524 104.966C36.8572 106.869 36.3991 108.314 34.4258 109.019L29.7392 110.745L29.3868 109.759L34.0734 108.032C35.3772 107.574 35.8001 106.517 35.3067 105.248C34.8486 104.015 33.862 103.592 32.5934 104.085L27.9068 105.812L27.5545 104.825L32.2763 103.134Z"
                    fill="#FFFCF6" />
                <path
                    d="M26.2512 99.9261L26.0398 98.5166L32.1711 95.0633L25.2998 93.6186L25.0884 92.2091L32.8406 91.011L32.9815 91.9976L26.5683 92.9843L33.3691 94.429L33.4749 95.31L27.414 98.6928L33.8272 97.7061L33.9682 98.6928L26.2512 99.9261Z"
                    fill="#FFFCF6" />
                <path
                    d="M25.1245 81.2503L25.6531 77.6208C25.8645 76.1408 26.7807 75.3656 28.014 75.5418C28.9302 75.6827 29.6702 76.2113 29.7759 77.1627C30.093 76.2817 30.7625 76.176 31.5378 76.2465C32.313 76.317 33.1587 76.4579 33.7225 76.1056L33.5463 77.2684C33.1587 77.5151 32.3835 77.2332 31.573 77.2684C30.7978 77.2684 30.1283 77.3741 29.9873 78.3608L29.6349 80.8979L32.9473 81.3912L32.8063 82.4483L25.1245 81.2503ZM29.1416 78.5722C29.2826 77.5855 29.1416 76.7398 28.014 76.5989C27.274 76.4932 26.6397 76.8456 26.4988 77.7617L26.1112 80.3341L28.8245 80.7217L29.1416 78.5722Z"
                    fill="#FFFCF6" />
                <path
                    d="M27.9781 67.4016C28.7886 65.0406 31.0438 64.4768 33.0876 65.1816C35.0962 65.8511 36.5762 67.6835 35.7657 70.0444C34.9552 72.4053 32.7 72.9691 30.6562 72.2643C28.6124 71.6301 27.1677 69.7625 27.9781 67.4016ZM34.8848 69.7977C35.4838 68.0006 34.18 66.6968 32.7 66.2035C31.22 65.7102 29.3877 65.9216 28.7886 67.7187C28.1896 69.5158 29.4934 70.8196 30.9734 71.3129C32.4534 71.8062 34.2857 71.5948 34.8848 69.7977Z"
                    fill="#FFFCF6" />
                <path
                    d="M32.8406 56.7611C34.074 54.6116 36.4349 54.5059 38.2673 55.563C40.0997 56.6201 41.192 58.6991 39.9235 60.8839C38.6549 63.0686 36.3292 63.139 34.4968 62.0819C32.6644 60.9543 31.572 58.8753 32.8406 56.7611ZM39.1835 60.4258C40.1349 58.7696 39.113 57.2544 37.7739 56.4792C36.3997 55.6687 34.6025 55.563 33.6159 57.1839C32.6644 58.8401 33.6863 60.3553 35.0254 61.1305C36.3997 61.941 38.1968 62.0467 39.1835 60.4258Z"
                    fill="#FFFCF6" />
                <path
                    d="M37.6691 49.7476L38.6205 48.6552L45.1394 51.2275L41.9328 44.9905L42.8842 43.8981L48.6984 49.1485L48.0289 49.8885L43.1661 45.519L46.3727 51.6856L45.7737 52.3551L39.29 49.818L44.1528 54.1875L43.4833 54.9275L37.6691 49.7476Z"
                    fill="#FFFCF6" />
                <path
                    d="M51.6943 39.6699C50.919 38.8242 50.0381 38.93 49.1924 39.5642C48.5229 40.0928 47.9591 40.868 48.5933 41.7137C49.1571 42.489 50.2847 41.8547 51.4476 41.3261C52.6104 40.7975 53.879 40.3747 54.7952 41.6433C55.7818 42.9823 54.9009 44.4975 53.7733 45.3432C52.3638 46.4003 50.6724 46.6118 49.5095 45.0965L50.32 44.4975C51.0952 45.5546 52.3638 45.3432 53.2799 44.6385C54.0552 44.0746 54.6895 43.2289 53.9847 42.3128C53.3504 41.4671 52.2228 42.0309 51.06 42.5594C49.8971 43.088 48.6638 43.5461 47.8181 42.4185C46.8315 41.1499 47.5714 39.7052 48.699 38.8595C49.9676 37.8728 51.4123 37.7671 52.4695 39.1061L51.6943 39.6699Z"
                    fill="#FFFCF6" />
                <path d="M58.3167 40.6571L59.3743 40.0931L59.9384 41.1506L58.8808 41.7147L58.3167 40.6571Z"
                    fill="#FFFCF6" />
                <path
                    d="M65.8945 29.9797L68.6431 29.2045C69.3126 29.0283 70.1935 28.7816 70.6868 28.9226C71.2506 29.0635 71.8145 29.4864 72.0259 30.2616C72.2725 31.0721 71.9906 31.7768 71.3564 32.2701C72.343 32.1997 73.0478 32.7635 73.2944 33.7149C73.6116 34.8073 73.083 36.1111 71.603 36.5339L67.9735 37.5558L65.8945 29.9797ZM68.7488 36.3577L71.2859 35.653C72.1668 35.4063 72.5544 34.7368 72.343 33.8911C72.0611 32.9044 71.1802 32.8692 70.3345 33.0806L68.044 33.7501L68.7488 36.3577ZM67.7973 32.9397L69.8059 32.4111C70.9687 32.094 71.2859 31.5654 71.0745 30.7902C70.7926 29.733 70.0173 29.8035 69.1364 30.0502L67.1278 30.5787L67.7973 32.9397Z"
                    fill="#FFFCF6" />
                <path
                    d="M78.5092 27.3024L79.672 27.1967L83.4424 34.7022L82.2796 34.808L81.2224 32.5528L77.9454 32.8699L77.2758 35.3013L76.1835 35.407L78.5092 27.3024ZM78.1568 31.9537L80.7996 31.7071L79.1434 28.2185L78.1568 31.9537Z"
                    fill="#FFFCF6" />
                <path
                    d="M86.7199 26.9124L87.8122 27.0181L91.3713 33.678L91.8998 27.3705L92.8865 27.441L92.2522 35.2637L91.1246 35.1932L87.5656 28.6038L87.037 34.8408L86.0504 34.7704L86.7199 26.9124Z"
                    fill="#FFFCF6" />
                <path
                    d="M97.855 28.3236L98.8416 28.6055L97.8197 32.3759L102.683 29.6274L103.951 29.9798L99.934 32.1645L102.013 37.5558L100.744 37.2035L99.0531 32.6226L97.4674 33.433L96.7274 36.0759L95.7407 35.794L97.855 28.3236Z"
                    fill="#FFFCF6" />
                <path
                    d="M113.219 34.0314L114.1 34.5599L112.338 37.4494L115.862 39.5637L117.624 36.6742L118.505 37.2028L114.417 43.8979L113.536 43.3694L115.404 40.3037L111.88 38.1894L110.012 41.2551L109.131 40.7265L113.219 34.0314Z"
                    fill="#FFFCF6" />
                <path
                    d="M125.199 42.3477C127.031 44.0391 126.644 46.3295 125.199 47.9152C123.754 49.5009 121.534 50.0999 119.667 48.4438C117.799 46.7876 118.222 44.462 119.667 42.8763C121.111 41.2906 123.331 40.6916 125.199 42.3477ZM120.266 47.7743C121.675 49.0428 123.402 48.3733 124.424 47.2105C125.446 46.0476 126.01 44.2858 124.6 43.0172C123.191 41.7487 121.464 42.4182 120.442 43.581C119.42 44.7439 118.856 46.5057 120.266 47.7743Z"
                    fill="#FFFCF6" />
                <path
                    d="M131.224 50.3465L129.639 48.2675L130.308 47.7389L134.149 52.7074L133.48 53.236L131.894 51.157L126.397 55.3855L125.763 54.5398L131.224 50.3465Z"
                    fill="#FFFCF6" />
                <path
                    d="M136.3 56.125L138.872 60.8821L138.097 61.3049L136.018 57.464L133.833 58.6621L135.772 62.2211L134.996 62.6439L133.058 59.085L130.697 60.3887L132.812 64.2648L132.036 64.6877L129.429 59.8954L136.3 56.125Z"
                    fill="#FFFCF6" />
                <path
                    d="M140.633 64.9705L140.985 65.9572L134.431 68.2829L135.806 72.1943L134.96 72.4762L133.233 67.5781L140.633 64.9705Z"
                    fill="#FFFCF6" />
            </g>
            <path
                d="M70.729 84.3583C69.6255 84.2054 68.9029 83.1175 69.1892 82.0403C69.4565 81.0349 70.5442 80.4956 71.5069 80.891L84.6448 86.2876L70.729 84.3583Z"
                fill="#FCD043" />
            <path
                d="M86.4761 72.4105C86.6244 71.2831 87.7283 70.5466 88.8254 70.843C89.8495 71.1197 90.4008 72.2343 89.9988 73.2153L84.6538 86.2601L86.4761 72.4105Z"
                fill="#FCD043" />
            <path
                d="M76.2034 75.0829C75.5197 74.1847 75.7708 72.8959 76.7382 72.3386C77.6412 71.8184 78.8021 72.2174 79.2104 73.1881L84.704 86.2498L76.2034 75.0829Z"
                fill="#FCD043" />
            <path
                d="M95.823 77.7421C96.7155 77.0615 98.0084 77.3286 98.5766 78.3109C99.1068 79.2277 98.7196 80.3954 97.7519 80.7977L84.7039 86.2218L95.823 77.7421Z"
                fill="#FCD043" />
            <path
                d="M98.5414 88.181C99.6449 88.3339 100.368 89.4218 100.081 90.499C99.8139 91.5044 98.7262 92.0437 97.7635 91.6483L84.6257 86.2517L98.5414 88.181Z"
                fill="#FCD043" />
            <path
                d="M82.7943 100.129C82.646 101.256 81.5421 101.993 80.4449 101.696C79.4209 101.42 78.8696 100.305 79.2716 99.324L84.6166 86.2792L82.7943 100.129Z"
                fill="#FCD043" />
            <path
                d="M93.1808 97.3964C93.8646 98.2946 93.6134 99.5833 92.646 100.141C91.7431 100.661 90.5822 100.262 90.1739 99.2911L84.6801 86.2294L93.1808 97.3964Z"
                fill="#FCD043" />
            <path
                d="M73.563 94.7311C72.6705 95.4117 71.3776 95.1446 70.8094 94.1623C70.2791 93.2455 70.6664 92.0778 71.6341 91.6755L84.6821 86.2513L73.563 94.7311Z"
                fill="#FCD043" />
        </symbol>

        <symbol id="polygon" viewBox="0 0 192 200">
            <path opacity="0.32"
                d="M37.5305 19.5236L96 0.525732L154.47 19.5236L190.606 69.2608V130.739L154.469 180.476L96 199.474L37.5305 180.476L1.39435 130.739V69.2608L37.5305 19.5236Z"
                fill="none" stroke="#FFFCF6"></path>
        </symbol>
        <symbol id="polygon-green-stroke" viewBox="0 0 170 170">
            <path opacity="0.48"
                d="M35.3473 16.6589L85 0.525732L134.653 16.6589L165.34 58.896V111.104L134.653 153.341L85 169.474L35.3473 153.341L4.66019 111.104V58.896L35.3473 16.6589Z"
                fill="none" stroke="currentColor" />
        </symbol>

        <symbol id="polygon-fill" viewBox="0 0 192 200">
            <path
                d="M37.5305 19.5236L96 0.525732L154.47 19.5236L190.606 69.2608V130.739L154.469 180.476L96 199.474L37.5305 180.476L1.39435 130.739V69.2608L37.5305 19.5236Z"
                fill="currentColor"></path>
            <!-- fill="#FCD043"></path> -->
        </symbol>
        <symbol id="label-second" viewBox="0 0 80 80">
           <path d="M22.4622 3.97128L24.5587 3.07015C25.5237 2.66965 26.2558 2.97003 26.6552 3.83778C27.0545 4.73891 26.755 5.50653 25.7899 5.90703L24.3257 6.54116L25.1909 8.51029L24.5587 8.77729L22.4622 3.97128ZM24.0928 5.97378L25.3573 5.43978C26.0894 5.13941 26.2558 4.67216 26.0229 4.10478C25.7899 3.53741 25.3241 3.37053 24.5919 3.67091L23.3274 4.20491L24.0928 5.97378Z" fill="#1B3B36"/>
           <path d="M22.4622 3.97128L24.5587 3.07015C25.5237 2.66965 26.2558 2.97003 26.6552 3.83778C27.0545 4.73891 26.755 5.50653 25.7899 5.90703L24.3257 6.54116L25.1909 8.51029L24.5587 8.77729L22.4622 3.97128ZM24.0928 5.97378L25.3573 5.43978C26.0894 5.13941 26.2558 4.67216 26.0229 4.10478C25.7899 3.53741 25.3241 3.37053 24.5919 3.67091L23.3274 4.20491L24.0928 5.97378Z" fill="black" fill-opacity="0.2"/>
           <path d="M32.0798 0.700778L34.5091 0.333652C35.4742 0.200152 36.173 0.634028 36.2728 1.4684C36.3727 2.10253 36.173 2.63653 35.574 2.90353C36.2063 2.93691 36.3727 3.33741 36.5058 3.83803C36.6389 4.33866 36.6722 4.90603 37.0382 5.20641L36.2728 5.30653C36.0399 5.13966 36.0732 4.53891 35.9068 4.07166C35.7737 3.57103 35.574 3.17053 34.9085 3.27066L33.2446 3.53766L33.5773 5.74041L32.8785 5.84054L32.0798 0.700778ZM34.5424 2.77003C35.1747 2.66991 35.7071 2.43628 35.6073 1.66865C35.5407 1.16803 35.208 0.834278 34.5424 0.934403L32.8452 1.2014L33.1114 3.00366L34.5424 2.77003Z" fill="#1B3B36"/>
           <path d="M32.0798 0.700778L34.5091 0.333652C35.4742 0.200152 36.173 0.634028 36.2728 1.4684C36.3727 2.10253 36.173 2.63653 35.574 2.90353C36.2063 2.93691 36.3727 3.33741 36.5058 3.83803C36.6389 4.33866 36.6722 4.90603 37.0382 5.20641L36.2728 5.30653C36.0399 5.13966 36.0732 4.53891 35.9068 4.07166C35.7737 3.57103 35.574 3.17053 34.9085 3.27066L33.2446 3.53766L33.5773 5.74041L32.8785 5.84054L32.0798 0.700778ZM34.5424 2.77003C35.1747 2.66991 35.7071 2.43628 35.6073 1.66865C35.5407 1.16803 35.208 0.834278 34.5424 0.934403L32.8452 1.2014L33.1114 3.00366L34.5424 2.77003Z" fill="black" fill-opacity="0.2"/>
           <path d="M42.4624 0L46.0564 0.367126L45.9898 0.967877L43.0947 0.667501L42.9283 2.33625L45.6238 2.60325L45.5572 3.20401L42.8617 2.937L42.662 4.73926L45.5905 5.00626L45.5239 5.60701L41.9299 5.20651L42.4624 0Z" fill="#1B3B36"/>
           <path d="M42.4624 0L46.0564 0.367126L45.9898 0.967877L43.0947 0.667501L42.9283 2.33625L45.6238 2.60325L45.5572 3.20401L42.8617 2.937L42.662 4.73926L45.5905 5.00626L45.5239 5.60701L41.9299 5.20651L42.4624 0Z" fill="black" fill-opacity="0.2"/>
           <path d="M52.2797 1.80176L53.1782 2.16888L53.1117 6.87477L56.2731 3.40376L57.1716 3.77089L55.2415 8.64365L54.5759 8.34327L56.1732 4.27151L53.0451 7.74252L52.4794 7.50889L52.5459 2.83638L50.9486 6.90814L50.3496 6.67452L52.2797 1.80176Z" fill="#1B3B36"/>
           <path d="M52.2797 1.80176L53.1782 2.16888L53.1117 6.87477L56.2731 3.40376L57.1716 3.77089L55.2415 8.64365L54.5759 8.34327L56.1732 4.27151L53.0451 7.74252L52.4794 7.50889L52.5459 2.83638L50.9486 6.90814L50.3496 6.67452L52.2797 1.80176Z" fill="black" fill-opacity="0.2"/>
           <path d="M62.7285 7.0752L63.2942 7.4757L60.2659 11.7477L59.7002 11.3472L62.7285 7.0752Z" fill="#1B3B36"/>
           <path d="M62.7285 7.0752L63.2942 7.4757L60.2659 11.7477L59.7002 11.3472L62.7285 7.0752Z" fill="black" fill-opacity="0.2"/>
           <path d="M68.5864 16.954C67.6213 17.8551 66.5897 17.755 65.7245 16.7871C64.8259 15.7859 64.7594 14.7846 65.791 13.8501L68.2536 11.614L68.7195 12.1146L66.2236 14.3508C65.5248 14.9849 65.5248 15.7191 66.1238 16.3866C66.7228 17.0541 67.4216 17.0541 68.0872 16.4534L70.5497 14.2173L71.0156 14.7179L68.5864 16.954Z" fill="#1B3B36"/>
           <path d="M68.5864 16.954C67.6213 17.8551 66.5897 17.755 65.7245 16.7871C64.8259 15.7859 64.7594 14.7846 65.791 13.8501L68.2536 11.614L68.7195 12.1146L66.2236 14.3508C65.5248 14.9849 65.5248 15.7191 66.1238 16.3866C66.7228 17.0541 67.4216 17.0541 68.0872 16.4534L70.5497 14.2173L71.0156 14.7179L68.5864 16.954Z" fill="black" fill-opacity="0.2"/>
           <path d="M74.8433 20.2258L75.2759 21.0936L72.048 24.4978L76.7069 24.064L77.1395 24.9317L72.4473 27.2346L72.1478 26.6338L76.0746 24.7315L71.449 25.1653L71.1827 24.6313L74.3774 21.2605L70.4506 23.1628L70.1511 22.5621L74.8433 20.2258Z" fill="#1B3B36"/>
           <path d="M74.8433 20.2258L75.2759 21.0936L72.048 24.4978L76.7069 24.064L77.1395 24.9317L72.4473 27.2346L72.1478 26.6338L76.0746 24.7315L71.449 25.1653L71.1827 24.6313L74.3774 21.2605L70.4506 23.1628L70.1511 22.5621L74.8433 20.2258Z" fill="black" fill-opacity="0.2"/>
           <path d="M80.0013 38.4817L79.968 40.9514C79.968 41.9193 79.4023 42.5201 78.5704 42.5201C77.9381 42.5201 77.4389 42.2197 77.2725 41.5855C77.1394 42.1863 76.7068 42.3198 76.1744 42.3532C75.6752 42.3866 75.0762 42.3532 74.7434 42.6536V41.8859C74.9431 41.6857 75.5088 41.8192 76.0412 41.719C76.5404 41.6523 76.973 41.5522 77.0063 40.8513L77.0396 39.1492L74.81 39.1158V38.4149L80.0013 38.4817ZM77.572 40.5843C77.572 41.2518 77.7051 41.7858 78.4705 41.8192C78.9697 41.8192 79.369 41.5522 79.369 40.8847L79.4023 39.1492L77.572 39.1158V40.5843Z" fill="#1B3B36"/>
           <path d="M80.0013 38.4817L79.968 40.9514C79.968 41.9193 79.4023 42.5201 78.5704 42.5201C77.9381 42.5201 77.4389 42.2197 77.2725 41.5855C77.1394 42.1863 76.7068 42.3198 76.1744 42.3532C75.6752 42.3866 75.0762 42.3532 74.7434 42.6536V41.8859C74.9431 41.6857 75.5088 41.8192 76.0412 41.719C76.5404 41.6523 76.973 41.5522 77.0063 40.8513L77.0396 39.1492L74.81 39.1158V38.4149L80.0013 38.4817ZM77.572 40.5843C77.572 41.2518 77.7051 41.7858 78.4705 41.8192C78.9697 41.8192 79.369 41.5522 79.369 40.8847L79.4023 39.1492L77.572 39.1158V40.5843Z" fill="black" fill-opacity="0.2"/>
           <path d="M78.6022 51.0641C78.1363 52.6661 76.6388 53.1333 75.2744 52.7328C73.91 52.3323 72.8784 51.1642 73.311 49.5622C73.7769 47.9602 75.2744 47.493 76.6388 47.8935C78.0032 48.294 79.0348 49.4621 78.6022 51.0641ZM73.8768 49.7291C73.544 50.964 74.4425 51.765 75.4408 52.0653C76.4392 52.3657 77.6704 52.1321 78.0032 50.8972C78.336 49.6623 77.4375 48.8613 76.4392 48.561C75.4408 48.294 74.2428 48.4942 73.8768 49.7291Z" fill="#1B3B36"/>
           <path d="M78.6022 51.0641C78.1363 52.6661 76.6388 53.1333 75.2744 52.7328C73.91 52.3323 72.8784 51.1642 73.311 49.5622C73.7769 47.9602 75.2744 47.493 76.6388 47.8935C78.0032 48.294 79.0348 49.4621 78.6022 51.0641ZM73.8768 49.7291C73.544 50.964 74.4425 51.765 75.4408 52.0653C76.4392 52.3657 77.6704 52.1321 78.0032 50.8972C78.336 49.6623 77.4375 48.8613 76.4392 48.561C75.4408 48.294 74.2428 48.4942 73.8768 49.7291Z" fill="black" fill-opacity="0.2"/>
           <path d="M74.111 61.243C73.2458 62.6448 71.6817 62.6781 70.4504 61.9439C69.2524 61.2096 68.5536 59.7745 69.4521 58.3728C70.3173 56.971 71.8814 56.9376 73.1127 57.6719C74.3107 58.4061 75.0095 59.8079 74.111 61.243ZM69.9513 58.6731C69.2857 59.7745 69.918 60.8091 70.8165 61.3431C71.715 61.9105 72.913 62.0106 73.6118 60.9426C74.2774 59.8413 73.6451 58.8066 72.7466 58.2726C71.8481 57.7053 70.6168 57.5718 69.9513 58.6731Z" fill="#1B3B36"/>
           <path d="M74.111 61.243C73.2458 62.6448 71.6817 62.6781 70.4504 61.9439C69.2524 61.2096 68.5536 59.7745 69.4521 58.3728C70.3173 56.971 71.8814 56.9376 73.1127 57.6719C74.3107 58.4061 75.0095 59.8079 74.111 61.243ZM69.9513 58.6731C69.2857 59.7745 69.918 60.8091 70.8165 61.3431C71.715 61.9105 72.913 62.0106 73.6118 60.9426C74.2774 59.8413 73.6451 58.8066 72.7466 58.2726C71.8481 57.7053 70.6168 57.5718 69.9513 58.6731Z" fill="black" fill-opacity="0.2"/>
           <path d="M68.5851 68.2523L67.8863 68.8864L63.7266 66.7171L65.4237 71.1226L64.7249 71.7567L61.2307 67.8518L61.7299 67.4179L64.6251 70.6553L62.9279 66.3166L63.3605 65.9161L67.487 68.0854L64.5918 64.8481L65.091 64.4142L68.5851 68.2523Z" fill="#1B3B36"/>
           <path d="M68.5851 68.2523L67.8863 68.8864L63.7266 66.7171L65.4237 71.1226L64.7249 71.7567L61.2307 67.8518L61.7299 67.4179L64.6251 70.6553L62.9279 66.3166L63.3605 65.9161L67.487 68.0854L64.5918 64.8481L65.091 64.4142L68.5851 68.2523Z" fill="black" fill-opacity="0.2"/>
           <path d="M55.7081 75.3279C56.1074 75.9621 56.7064 76.0288 57.3387 75.7284C57.8711 75.4614 58.3037 75.0276 58.0042 74.3934C57.738 73.8261 56.9393 74.0931 56.0741 74.2933C55.2422 74.4936 54.377 74.5937 53.9111 73.6592C53.4119 72.6579 54.2106 71.7902 55.0758 71.3563C56.1407 70.8557 57.2721 70.9224 57.8379 72.0572L57.2388 72.3576C56.8395 71.5566 56.0408 71.5565 55.3087 71.8903C54.743 72.1573 54.2106 72.6579 54.5433 73.3254C54.8428 73.9596 55.6748 73.7259 56.5067 73.5257C57.3387 73.3254 58.2039 73.1586 58.6032 74.0263C59.0691 74.9942 58.4369 75.8286 57.5716 76.2291C56.6066 76.6963 55.6748 76.5962 55.1091 75.5949L55.7081 75.3279Z" fill="#1B3B36"/>
           <path d="M55.7081 75.3279C56.1074 75.9621 56.7064 76.0288 57.3387 75.7284C57.8711 75.4614 58.3037 75.0276 58.0042 74.3934C57.738 73.8261 56.9393 74.0931 56.0741 74.2933C55.2422 74.4936 54.377 74.5937 53.9111 73.6592C53.4119 72.6579 54.2106 71.7902 55.0758 71.3563C56.1407 70.8557 57.2721 70.9224 57.8379 72.0572L57.2388 72.3576C56.8395 71.5566 56.0408 71.5565 55.3087 71.8903C54.743 72.1573 54.2106 72.6579 54.5433 73.3254C54.8428 73.9596 55.6748 73.7259 56.5067 73.5257C57.3387 73.3254 58.2039 73.1586 58.6032 74.0263C59.0691 74.9942 58.4369 75.8286 57.5716 76.2291C56.6066 76.6963 55.6748 76.5962 55.1091 75.5949L55.7081 75.3279Z" fill="black" fill-opacity="0.2"/>
           <path d="M48.7181 74.6931L47.9194 74.8933L47.7197 74.0923L48.5184 73.8921L48.7181 74.6931Z" fill="#1B3B36"/>
           <path d="M48.7181 74.6931L47.9194 74.8933L47.7197 74.0923L48.5184 73.8921L48.7181 74.6931Z" fill="black" fill-opacity="0.2"/>
           <path d="M35.4084 80L33.5449 79.6996C33.079 79.6329 32.48 79.5328 32.2137 79.2991C31.9142 79.0321 31.7146 78.6316 31.7811 78.131C31.881 77.5636 32.2137 77.2299 32.7462 77.0964C32.1472 76.8627 31.8477 76.3287 31.9808 75.6946C32.1139 74.927 32.7795 74.2929 33.7778 74.4597L36.2736 74.8602L35.4084 80ZM35.1089 77.6638L33.7445 77.4301C32.9791 77.2966 32.6131 77.5302 32.5132 78.0643C32.3801 78.7651 32.8793 78.9654 33.4783 79.0655L34.8427 79.2991L35.1089 77.6638ZM35.475 75.2941L33.7445 75.0271C33.1455 74.927 32.7129 75.2274 32.6131 75.7947C32.5132 76.4622 33.0124 76.7292 33.5781 76.8294L35.1422 77.0964L35.475 75.2941Z" fill="#1B3B36"/>
           <path d="M35.4084 80L33.5449 79.6996C33.079 79.6329 32.48 79.5328 32.2137 79.2991C31.9142 79.0321 31.7146 78.6316 31.7811 78.131C31.881 77.5636 32.2137 77.2299 32.7462 77.0964C32.1472 76.8627 31.8477 76.3287 31.9808 75.6946C32.1139 74.927 32.7795 74.2929 33.7778 74.4597L36.2736 74.8602L35.4084 80ZM35.1089 77.6638L33.7445 77.4301C32.9791 77.2966 32.6131 77.5302 32.5132 78.0643C32.3801 78.7651 32.8793 78.9654 33.4783 79.0655L34.8427 79.2991L35.1089 77.6638ZM35.475 75.2941L33.7445 75.0271C33.1455 74.927 32.7129 75.2274 32.6131 75.7947C32.5132 76.4622 33.0124 76.7292 33.5781 76.8294L35.1422 77.0964L35.475 75.2941Z" fill="black" fill-opacity="0.2"/>
           <path d="M23.9925 76.8631L23.2937 76.5627L23.5599 70.9557L24.2588 71.2561L24.1256 72.9248L26.1556 73.8259L27.3203 72.6244L27.9859 72.9248L23.9925 76.8631ZM25.723 74.2598L24.0924 73.5256L23.8927 76.1288L25.723 74.2598Z" fill="#1B3B36"/>
           <path d="M23.9925 76.8631L23.2937 76.5627L23.5599 70.9557L24.2588 71.2561L24.1256 72.9248L26.1556 73.8259L27.3203 72.6244L27.9859 72.9248L23.9925 76.8631ZM25.723 74.2598L24.0924 73.5256L23.8927 76.1288L25.723 74.2598Z" fill="black" fill-opacity="0.2"/>
           <path d="M16.3741 72.5573L15.8084 72.0901L16.3408 67.0505L13.6786 70.3546L13.1794 69.9541L16.474 65.8823L17.073 66.3496L16.5405 71.3558L19.1695 68.0851L19.6686 68.4856L16.3741 72.5573Z" fill="#1B3B36"/>
           <path d="M16.3741 72.5573L15.8084 72.0901L16.3408 67.0505L13.6786 70.3546L13.1794 69.9541L16.474 65.8823L17.073 66.3496L16.5405 71.3558L19.1695 68.0851L19.6686 68.4856L16.3741 72.5573Z" fill="black" fill-opacity="0.2"/>
           <path d="M8.65136 65.0814L8.25202 64.514L10.3485 62.9788L6.68796 62.3446L6.15552 61.6104L9.15053 62.1778L10.3485 58.4731L10.8477 59.174L9.81608 62.2779L10.9808 62.5115L12.4783 61.4435L12.8776 62.0109L8.65136 65.0814Z" fill="#1B3B36"/>
           <path d="M8.65136 65.0814L8.25202 64.514L10.3485 62.9788L6.68796 62.3446L6.15552 61.6104L9.15053 62.1778L10.3485 58.4731L10.8477 59.174L9.81608 62.2779L10.9808 62.5115L12.4783 61.4435L12.8776 62.0109L8.65136 65.0814Z" fill="black" fill-opacity="0.2"/>
           <path d="M1.03199 49.4618L0.898881 48.7609L3.09522 48.3604L2.59605 45.657L0.399713 46.0575L0.266602 45.3567L5.39139 44.3888L5.52451 45.0897L3.16178 45.5235L3.66094 48.2269L6.02367 47.793L6.15678 48.4939L1.03199 49.4618Z" fill="#1B3B36"/>
           <path d="M1.03199 49.4618L0.898881 48.7609L3.09522 48.3604L2.59605 45.657L0.399713 46.0575L0.266602 45.3567L5.39139 44.3888L5.52451 45.0897L3.16178 45.5235L3.66094 48.2269L6.02367 47.793L6.15678 48.4939L1.03199 49.4618Z" fill="black" fill-opacity="0.2"/>
           <path d="M0.000362108 36.4786C0.133474 34.8098 1.53114 34.1089 2.96209 34.2091C4.39304 34.3092 5.62432 35.2771 5.45793 36.9458C5.32482 38.6146 3.92715 39.3154 2.4962 39.2153C1.09853 39.1152 -0.132749 38.1473 0.000362108 36.4786ZM4.89221 36.9124C4.99204 35.6442 3.96043 35.0101 2.89554 34.9099C1.83065 34.8098 0.699197 35.2437 0.599364 36.5119C0.49953 37.7802 1.53114 38.4143 2.59604 38.5144C3.62765 38.6479 4.7591 38.2141 4.89221 36.9124Z" fill="#1B3B36"/>
           <path d="M0.000362108 36.4786C0.133474 34.8098 1.53114 34.1089 2.96209 34.2091C4.39304 34.3092 5.62432 35.2771 5.45793 36.9458C5.32482 38.6146 3.92715 39.3154 2.4962 39.2153C1.09853 39.1152 -0.132749 38.1473 0.000362108 36.4786ZM4.89221 36.9124C4.99204 35.6442 3.96043 35.0101 2.89554 34.9099C1.83065 34.8098 0.699197 35.2437 0.599364 36.5119C0.49953 37.7802 1.53114 38.4143 2.59604 38.5144C3.62765 38.6479 4.7591 38.2141 4.89221 36.9124Z" fill="black" fill-opacity="0.2"/>
           <path d="M2.79607 26.9338L2.19707 28.5692L1.63135 28.3689L3.0623 24.4307L3.62802 24.6309L3.02902 26.2663L7.38842 27.8683L7.15547 28.5358L2.79607 26.9338Z" fill="#1B3B36"/>
           <path d="M2.79607 26.9338L2.19707 28.5692L1.63135 28.3689L3.0623 24.4307L3.62802 24.6309L3.02902 26.2663L7.38842 27.8683L7.15547 28.5358L2.79607 26.9338Z" fill="black" fill-opacity="0.2"/>
           <path d="M5.82251 19.1573L7.81918 16.1536L8.31835 16.4873L6.68773 18.9237L8.05213 19.8582L9.54963 17.5887L10.0488 17.9224L8.5513 20.1919L10.0488 21.1932L11.6794 18.7568L12.1786 19.0906L10.1486 22.1277L5.82251 19.1573Z" fill="#1B3B36"/>
           <path d="M5.82251 19.1573L7.81918 16.1536L8.31835 16.4873L6.68773 18.9237L8.05213 19.8582L9.54963 17.5887L10.0488 17.9224L8.5513 20.1919L10.0488 21.1932L11.6794 18.7568L12.1786 19.0906L10.1486 22.1277L5.82251 19.1573Z" fill="black" fill-opacity="0.2"/>
           <path d="M11.915 11.4472L12.4142 10.98L15.5423 14.4176L17.5723 12.5486L17.9716 12.9825L15.4092 15.3187L11.915 11.4472Z" fill="#1B3B36"/>
           <path d="M11.915 11.4472L12.4142 10.98L15.5423 14.4176L17.5723 12.5486L17.9716 12.9825L15.4092 15.3187L11.915 11.4472Z" fill="black" fill-opacity="0.2"/>
      <symbol id="arrow" viewBox="0 0 170 170">
            <path opacity="0.48" d="M16.6589 134.653L0.525728 85L16.6589 35.3473L58.896 4.66025L111.104 4.66024L153.341 35.3473L169.474 85L153.341 134.653L111.104 165.34L58.896 165.34L16.6589 134.653Z" fill="none" />
<path d="M90.5166 69.2754C90.5166 69.2754 91.7235 73.9019 95.3443 77.8676C98.9651 81.8332 105 85.1379 105 85.1379C105 85.1379 98.9651 88.4425 95.3443 92.4082C91.7235 96.3738 90.5166 101 90.5166 101" fill="none" stroke="#313F38" stroke-width="2"/>
<rect x="65.3448" y="85.4901" width="0.689671" height="37.932" transform="rotate(-90 65.3448 85.4901)" fill="#313F38" stroke="#313F38" stroke-width="0.689671"/>
      </symbol>
<symbol id="arrow-right" viewBox="0 0 47 22" fill='none' >
           <path d="M35.1719 1C35.1719 1 35.944 3.91667 38.2604 6.41667C40.5767 8.91667 44.4373 11 44.4373 11C44.4373 11 40.5767 13.0833 38.2604 15.5833C35.944 18.0833 35.1719 21 35.1719 21" stroke="currentColor" stroke-width="2"/>
           <rect x="0.285714" y="11.2856" width="0.571428" height="42.9196" transform="rotate(-90 0.285714 11.2856)" fill="currentColor" stroke="currentColor" stroke-width="0.571428"/>
      </symbol>

      <symbol id="line" viewBox="0 0 1024 301">
            <path d="M1154.05 70.2667C1085.37 11.2991 897.713 -64.6111 696.583 103.488C445.172 313.612 139.999 414.762 -130.214 98.4339" stroke="#FCD043" stroke-width="0.8" fill="none"/>
        </symbol>
        <symbol id="menu-burger" viewBox="0 0 128 32">
        <path fill="#fffcf6" style="fill: var(--color1, #fffcf6)" d="M0 0h128v3.2h-128zM0 28.8h128v3.2h-128z"></path>
        </symbol>
        <symbol id="star-8" viewBox="0 0 71 72">
            <path d="M35.3555 10.9999L38.0071 33.3482L60.3555 35.9999L38.0071 38.6515L35.3555 60.9999L32.7038 38.6515L10.3555 35.9999L32.7038 33.3482L35.3555 10.9999Z" fill="#FCD043"/>
<path d="M17.6777 18.3221L35.3554 32.2498L53.0331 18.3221L39.1054 35.9998L53.0331 53.6774L35.3554 39.7497L17.6777 53.6774L31.6054 35.9998L17.6777 18.3221Z" fill="#FCD043"/>
        </symbol>
        <symbol id="star-16" viewBox="0 0 150 149">
            <path d="M75 0L80.4577 49.3236L105.505 6.48409L90.4294 53.7633L130.736 24.8152L97.7332 61.875L146.329 51.8237L101.106 72.2561L149.589 82.8396L99.9652 83.1117L139.952 112.5L94.5076 92.5647L119.084 135.676L85.6768 98.9806L90.5934 148.361L75 101.25L59.4066 148.361L64.3232 98.9806L30.9161 135.676L55.4924 92.5647L10.0481 112.5L50.0348 83.1117L0.410858 82.8396L48.8938 72.2561L3.67076 51.8237L52.2668 61.875L19.2641 24.8152L59.5706 53.7633L44.4948 6.48409L69.5423 49.3236L75 0Z" fill="#FCD043"/>
        </symbol>
        <symbol id="menu-close" viewBox="0 0 32 32">
<path fill="#fffcf6" style="fill: var(--color1, #fffcf6)" d="M0.78 0.005l31.21 31.21-0.78 0.78-31.21-31.21 0.78-0.78z"></path>
<path fill="#fffcf6" style="fill: var(--color1, #fffcf6)" d="M31.211 0.005l-31.21 31.21 0.78 0.78 31.21-31.21-0.78-0.78z"></path>
</symbol>

<symbol id="wave-Lg" viewBox="0 0 1920 563" fill="none" xmlns="http://www.w3.org/2000/svg">
<path opacity="0.6" d="M2345.86 130.875C2217.07 20.3109 1865.21 -122.021 1488.1 193.165C1016.7 587.147 444.5 776.804 -62.1477 183.689" stroke="#FCD043"/>
</symbol>

<symbol id="wave-maxLg" viewBox="0 0 1024 257" fill="none" xmlns="http://www.w3.org/2000/svg">
<path opacity="0.6" d="M1268 60.0742C1195.48 9.78365 997.341 -54.9566 784.977 88.407C519.523 267.612 197.305 353.878 -87.9999 84.0968" stroke="#FCD043"/>
</symbol>

    </defs>
</svg>