<svg xmlns="http://www.w3.org/2000/svg" aria-hidden="true" style="position:absolute;width:0;height:0;overflow:hidden">
    <defs>
        <symbol id="icons8-cancel" viewBox="0 0 32 32">
            <path stroke="#313F38"
                d="M16 1.28c-8.122 0-14.72 6.598-14.72 14.72s6.598 14.72 14.72 14.72c8.122 0 14.72-6.598 14.72-14.72s-6.598-14.72-14.72-14.72zM16 2.56c7.43 0 13.44 6.010 13.44 13.44s-6.010 13.44-13.44 13.44c-7.43 0-13.44-6.010-13.44-13.44s6.010-13.44 13.44-13.44zM21.114 10.231c-0.169 0.004-0.329 0.075-0.446 0.196l-4.668 4.668-4.668-4.668c-0.12-0.124-0.286-0.194-0.459-0.194-0.26 0-0.495 0.158-0.593 0.399s-0.040 0.518 0.147 0.7l4.668 4.668-4.668 4.667c-0.167 0.161-0.235 0.399-0.176 0.623s0.234 0.399 0.458 0.458c0.224 0.058 0.463-0.009 0.623-0.176l4.668-4.668 4.668 4.668c0.161 0.167 0.399 0.235 0.623 0.176s0.399-0.234 0.458-0.458c0.058-0.224-0.009-0.463-0.176-0.623l-4.668-4.668 4.668-4.668c0.19-0.183 0.249-0.464 0.147-0.707s-0.342-0.4-0.606-0.394z">
            </path>
        </symbol>
        <symbol id="cancel-in-circle" width="26" height="26" viewBox="0 0 26 26" fill="none">
            <circle opacity="0.2" cx="13" cy="13" r="12.5" stroke="#313F38" />
            <rect x="16.0713" y="9.35355" width="0.5" height="9.5" transform="rotate(45 16.0713 9.35355)"
                fill="#1B3B36" />
            <rect x="16.0713" y="9.35355" width="0.5" height="9.5" transform="rotate(45 16.0713 9.35355)" fill="black"
                fill-opacity="0.2" />
            <rect x="16.0713" y="9.35355" width="0.5" height="9.5" transform="rotate(45 16.0713 9.35355)"
                stroke="#313F38" stroke-width="0.5" />
            <rect y="0.353553" width="0.5" height="9.5"
                transform="matrix(-0.707107 0.707107 0.707107 0.707107 9.45703 9.10355)" fill="#1B3B36" />
            <rect y="0.353553" width="0.5" height="9.5"
                transform="matrix(-0.707107 0.707107 0.707107 0.707107 9.45703 9.10355)" fill="black"
                fill-opacity="0.2" />
            <rect y="0.353553" width="0.5" height="9.5"
                transform="matrix(-0.707107 0.707107 0.707107 0.707107 9.45703 9.10355)" stroke="#313F38"
                stroke-width="0.5" />
        </symbol>
        <symbol id="arrow-datepicker" viewBox="0 0 10 18" fill="none">
            <path d="M1 1L9 9L1 17" stroke="#313F38" />
        </symbol>
        <symbol id="star" viewBox="0 0 35 35">
            <path
                d="M17.5 0L18.8519 13.3391L27.7862 3.3422L21.0394 14.9284L34.1435 12.0922L21.875 17.5L34.1435 22.9078L21.0394 20.0716L27.7862 31.6578L18.8519 21.6609L17.5 35L16.148 21.6609L7.21376 31.6578L13.9605 20.0716L0.85651 22.9078L13.125 17.5L0.85651 12.0922L13.9605 14.9284L7.21376 3.3422L16.148 13.3391L17.5 0Z"
                fill="#FCD043" />
        </symbol>
        <symbol id="arrow-up-and-down" viewBox="0 0 20 12">
            <path
                d="M19.0977 10.8276C19.0977 10.8276 16.3679 10.1702 14.0281 8.19773C11.6883 6.2253 9.73852 2.93792 9.73852 2.93792C9.73852 2.93792 7.7887 6.2253 5.44891 8.19773C3.10913 10.1702 0.379375 10.8276 0.379375 10.8276"
                fill="none" stroke="#FCD043" stroke-width="2" />
        </symbol>
        <symbol id="ellipse" viewBox="0 0 1419 714">
            <path d="M1418 714C1418 320.221 1100.79 1 709.5 1C318.206 1 1 320.221 1 714" fill="none" stroke="#fffcf6"
                stroke-width="2" />
        </symbol>
        <symbol id="label" viewBox="0 0 146 149">
            <g opacity="inherit">
                <path
                    d="M65.2596 143.586L62.0882 142.318C60.6435 141.719 60.1854 140.626 60.6787 139.287C61.2073 137.913 62.3349 137.42 63.7796 138.019L65.9996 138.9L67.1624 135.905L68.1138 136.292L65.2596 143.586ZM65.6825 139.71L63.7796 138.935C62.6873 138.477 62.0177 138.794 61.6654 139.64C61.313 140.485 61.6301 141.155 62.7225 141.613L64.6253 142.388L65.6825 139.71Z"
                    fill="#FFFCF6" />
                <path
                    d="M55.8166 139.358L52.6805 137.42C51.412 136.645 51.0948 135.482 51.7291 134.425C52.2224 133.65 52.9977 133.156 53.9138 133.438C53.2091 132.804 53.4205 132.17 53.7729 131.465C54.1253 130.76 54.6186 130.055 54.5129 129.386L55.4995 130.02C55.57 130.443 55.0062 131.077 54.7243 131.782C54.4424 132.487 54.231 133.121 55.0767 133.685L57.2614 135.024L59.0232 132.205L59.9042 132.733L55.8166 139.358ZM54.9709 134.636C54.1605 134.108 53.3148 133.896 52.7158 134.848C52.3282 135.517 52.3634 136.187 53.1738 136.715L55.3938 138.089L56.8033 135.764L54.9709 134.636Z"
                    fill="#FFFCF6" />
                <path
                    d="M46.901 133.332L42.8839 129.737L43.4829 129.068L46.7248 131.957L48.381 130.09L45.3505 127.412L45.9496 126.742L48.98 129.491L50.7772 127.482L47.5 124.557L48.0991 123.888L52.1514 127.517L46.901 133.332Z"
                    fill="#FFFCF6" />
                <path
                    d="M39.6071 126.39L38.7613 125.263L42.4613 119.307L35.7661 121.351L34.9204 120.224L41.1223 115.431L41.7213 116.242L36.5414 120.224L43.2013 118.215L43.7651 118.92L40.0651 124.804L45.2451 120.823L45.8441 121.633L39.6071 126.39Z"
                    fill="#FFFCF6" />
                <path d="M32.4183 115.961L31.925 115.045L38.8317 111.31L39.325 112.226L32.4183 115.961Z"
                    fill="#FFFCF6" />
                <path
                    d="M32.2763 103.134C34.1087 102.429 35.5182 103.134 36.1524 104.966C36.8572 106.869 36.3991 108.314 34.4258 109.019L29.7392 110.745L29.3868 109.759L34.0734 108.032C35.3772 107.574 35.8001 106.517 35.3067 105.248C34.8486 104.015 33.862 103.592 32.5934 104.085L27.9068 105.812L27.5545 104.825L32.2763 103.134Z"
                    fill="#FFFCF6" />
                <path
                    d="M26.2512 99.9261L26.0398 98.5166L32.1711 95.0633L25.2998 93.6186L25.0884 92.2091L32.8406 91.011L32.9815 91.9976L26.5683 92.9843L33.3691 94.429L33.4749 95.31L27.414 98.6928L33.8272 97.7061L33.9682 98.6928L26.2512 99.9261Z"
                    fill="#FFFCF6" />
                <path
                    d="M25.1245 81.2503L25.6531 77.6208C25.8645 76.1408 26.7807 75.3656 28.014 75.5418C28.9302 75.6827 29.6702 76.2113 29.7759 77.1627C30.093 76.2817 30.7625 76.176 31.5378 76.2465C32.313 76.317 33.1587 76.4579 33.7225 76.1056L33.5463 77.2684C33.1587 77.5151 32.3835 77.2332 31.573 77.2684C30.7978 77.2684 30.1283 77.3741 29.9873 78.3608L29.6349 80.8979L32.9473 81.3912L32.8063 82.4483L25.1245 81.2503ZM29.1416 78.5722C29.2826 77.5855 29.1416 76.7398 28.014 76.5989C27.274 76.4932 26.6397 76.8456 26.4988 77.7617L26.1112 80.3341L28.8245 80.7217L29.1416 78.5722Z"
                    fill="#FFFCF6" />
                <path
                    d="M27.9781 67.4016C28.7886 65.0406 31.0438 64.4768 33.0876 65.1816C35.0962 65.8511 36.5762 67.6835 35.7657 70.0444C34.9552 72.4053 32.7 72.9691 30.6562 72.2643C28.6124 71.6301 27.1677 69.7625 27.9781 67.4016ZM34.8848 69.7977C35.4838 68.0006 34.18 66.6968 32.7 66.2035C31.22 65.7102 29.3877 65.9216 28.7886 67.7187C28.1896 69.5158 29.4934 70.8196 30.9734 71.3129C32.4534 71.8062 34.2857 71.5948 34.8848 69.7977Z"
                    fill="#FFFCF6" />
                <path
                    d="M32.8406 56.7611C34.074 54.6116 36.4349 54.5059 38.2673 55.563C40.0997 56.6201 41.192 58.6991 39.9235 60.8839C38.6549 63.0686 36.3292 63.139 34.4968 62.0819C32.6644 60.9543 31.572 58.8753 32.8406 56.7611ZM39.1835 60.4258C40.1349 58.7696 39.113 57.2544 37.7739 56.4792C36.3997 55.6687 34.6025 55.563 33.6159 57.1839C32.6644 58.8401 33.6863 60.3553 35.0254 61.1305C36.3997 61.941 38.1968 62.0467 39.1835 60.4258Z"
                    fill="#FFFCF6" />
                <path
                    d="M37.6691 49.7476L38.6205 48.6552L45.1394 51.2275L41.9328 44.9905L42.8842 43.8981L48.6984 49.1485L48.0289 49.8885L43.1661 45.519L46.3727 51.6856L45.7737 52.3551L39.29 49.818L44.1528 54.1875L43.4833 54.9275L37.6691 49.7476Z"
                    fill="#FFFCF6" />
                <path
                    d="M51.6943 39.6699C50.919 38.8242 50.0381 38.93 49.1924 39.5642C48.5229 40.0928 47.9591 40.868 48.5933 41.7137C49.1571 42.489 50.2847 41.8547 51.4476 41.3261C52.6104 40.7975 53.879 40.3747 54.7952 41.6433C55.7818 42.9823 54.9009 44.4975 53.7733 45.3432C52.3638 46.4003 50.6724 46.6118 49.5095 45.0965L50.32 44.4975C51.0952 45.5546 52.3638 45.3432 53.2799 44.6385C54.0552 44.0746 54.6895 43.2289 53.9847 42.3128C53.3504 41.4671 52.2228 42.0309 51.06 42.5594C49.8971 43.088 48.6638 43.5461 47.8181 42.4185C46.8315 41.1499 47.5714 39.7052 48.699 38.8595C49.9676 37.8728 51.4123 37.7671 52.4695 39.1061L51.6943 39.6699Z"
                    fill="#FFFCF6" />
                <path d="M58.3167 40.6571L59.3743 40.0931L59.9384 41.1506L58.8808 41.7147L58.3167 40.6571Z"
                    fill="#FFFCF6" />
                <path
                    d="M65.8945 29.9797L68.6431 29.2045C69.3126 29.0283 70.1935 28.7816 70.6868 28.9226C71.2506 29.0635 71.8145 29.4864 72.0259 30.2616C72.2725 31.0721 71.9906 31.7768 71.3564 32.2701C72.343 32.1997 73.0478 32.7635 73.2944 33.7149C73.6116 34.8073 73.083 36.1111 71.603 36.5339L67.9735 37.5558L65.8945 29.9797ZM68.7488 36.3577L71.2859 35.653C72.1668 35.4063 72.5544 34.7368 72.343 33.8911C72.0611 32.9044 71.1802 32.8692 70.3345 33.0806L68.044 33.7501L68.7488 36.3577ZM67.7973 32.9397L69.8059 32.4111C70.9687 32.094 71.2859 31.5654 71.0745 30.7902C70.7926 29.733 70.0173 29.8035 69.1364 30.0502L67.1278 30.5787L67.7973 32.9397Z"
                    fill="#FFFCF6" />
                <path
                    d="M78.5092 27.3024L79.672 27.1967L83.4424 34.7022L82.2796 34.808L81.2224 32.5528L77.9454 32.8699L77.2758 35.3013L76.1835 35.407L78.5092 27.3024ZM78.1568 31.9537L80.7996 31.7071L79.1434 28.2185L78.1568 31.9537Z"
                    fill="#FFFCF6" />
                <path
                    d="M86.7199 26.9124L87.8122 27.0181L91.3713 33.678L91.8998 27.3705L92.8865 27.441L92.2522 35.2637L91.1246 35.1932L87.5656 28.6038L87.037 34.8408L86.0504 34.7704L86.7199 26.9124Z"
                    fill="#FFFCF6" />
                <path
                    d="M97.855 28.3236L98.8416 28.6055L97.8197 32.3759L102.683 29.6274L103.951 29.9798L99.934 32.1645L102.013 37.5558L100.744 37.2035L99.0531 32.6226L97.4674 33.433L96.7274 36.0759L95.7407 35.794L97.855 28.3236Z"
                    fill="#FFFCF6" />
                <path
                    d="M113.219 34.0314L114.1 34.5599L112.338 37.4494L115.862 39.5637L117.624 36.6742L118.505 37.2028L114.417 43.8979L113.536 43.3694L115.404 40.3037L111.88 38.1894L110.012 41.2551L109.131 40.7265L113.219 34.0314Z"
                    fill="#FFFCF6" />
                <path
                    d="M125.199 42.3477C127.031 44.0391 126.644 46.3295 125.199 47.9152C123.754 49.5009 121.534 50.0999 119.667 48.4438C117.799 46.7876 118.222 44.462 119.667 42.8763C121.111 41.2906 123.331 40.6916 125.199 42.3477ZM120.266 47.7743C121.675 49.0428 123.402 48.3733 124.424 47.2105C125.446 46.0476 126.01 44.2858 124.6 43.0172C123.191 41.7487 121.464 42.4182 120.442 43.581C119.42 44.7439 118.856 46.5057 120.266 47.7743Z"
                    fill="#FFFCF6" />
                <path
                    d="M131.224 50.3465L129.639 48.2675L130.308 47.7389L134.149 52.7074L133.48 53.236L131.894 51.157L126.397 55.3855L125.763 54.5398L131.224 50.3465Z"
                    fill="#FFFCF6" />
                <path
                    d="M136.3 56.125L138.872 60.8821L138.097 61.3049L136.018 57.464L133.833 58.6621L135.772 62.2211L134.996 62.6439L133.058 59.085L130.697 60.3887L132.812 64.2648L132.036 64.6877L129.429 59.8954L136.3 56.125Z"
                    fill="#FFFCF6" />
                <path
                    d="M140.633 64.9705L140.985 65.9572L134.431 68.2829L135.806 72.1943L134.96 72.4762L133.233 67.5781L140.633 64.9705Z"
                    fill="#FFFCF6" />
            </g>
            <path
                d="M70.729 84.3583C69.6255 84.2054 68.9029 83.1175 69.1892 82.0403C69.4565 81.0349 70.5442 80.4956 71.5069 80.891L84.6448 86.2876L70.729 84.3583Z"
                fill="#FCD043" />
            <path
                d="M86.4761 72.4105C86.6244 71.2831 87.7283 70.5466 88.8254 70.843C89.8495 71.1197 90.4008 72.2343 89.9988 73.2153L84.6538 86.2601L86.4761 72.4105Z"
                fill="#FCD043" />
            <path
                d="M76.2034 75.0829C75.5197 74.1847 75.7708 72.8959 76.7382 72.3386C77.6412 71.8184 78.8021 72.2174 79.2104 73.1881L84.704 86.2498L76.2034 75.0829Z"
                fill="#FCD043" />
            <path
                d="M95.823 77.7421C96.7155 77.0615 98.0084 77.3286 98.5766 78.3109C99.1068 79.2277 98.7196 80.3954 97.7519 80.7977L84.7039 86.2218L95.823 77.7421Z"
                fill="#FCD043" />
            <path
                d="M98.5414 88.181C99.6449 88.3339 100.368 89.4218 100.081 90.499C99.8139 91.5044 98.7262 92.0437 97.7635 91.6483L84.6257 86.2517L98.5414 88.181Z"
                fill="#FCD043" />
            <path
                d="M82.7943 100.129C82.646 101.256 81.5421 101.993 80.4449 101.696C79.4209 101.42 78.8696 100.305 79.2716 99.324L84.6166 86.2792L82.7943 100.129Z"
                fill="#FCD043" />
            <path
                d="M93.1808 97.3964C93.8646 98.2946 93.6134 99.5833 92.646 100.141C91.7431 100.661 90.5822 100.262 90.1739 99.2911L84.6801 86.2294L93.1808 97.3964Z"
                fill="#FCD043" />
            <path
                d="M73.563 94.7311C72.6705 95.4117 71.3776 95.1446 70.8094 94.1623C70.2791 93.2455 70.6664 92.0778 71.6341 91.6755L84.6821 86.2513L73.563 94.7311Z"
                fill="#FCD043" />
        </symbol>
        

        <symbol id="polygon" viewBox="0 0 192 200">
            <path opacity="0.32"
                d="M37.5305 19.5236L96 0.525732L154.47 19.5236L190.606 69.2608V130.739L154.469 180.476L96 199.474L37.5305 180.476L1.39435 130.739V69.2608L37.5305 19.5236Z"
                fill="none" stroke="#FFFCF6"></path>
        </symbol>
        <symbol id="polygon-green-stroke" viewBox="0 0 170 170">
            <path opacity="0.48"
                d="M35.3473 16.6589L85 0.525732L134.653 16.6589L165.34 58.896V111.104L134.653 153.341L85 169.474L35.3473 153.341L4.66019 111.104V58.896L35.3473 16.6589Z"
                fill="none" stroke="currentColor" />
        </symbol>

        <symbol id="polygon-fill" viewBox="0 0 192 200">
            <path
                d="M37.5305 19.5236L96 0.525732L154.47 19.5236L190.606 69.2608V130.739L154.469 180.476L96 199.474L37.5305 180.476L1.39435 130.739V69.2608L37.5305 19.5236Z"
                fill="currentColor"></path>
            <!-- fill="#FCD043"></path> -->
        </symbol>
        <symbol id="label-second" viewBox="0 0 80 80">
            <path
                d="M22.4622 3.97128L24.5587 3.07015C25.5237 2.66965 26.2558 2.97003 26.6552 3.83778C27.0545 4.73891 26.755 5.50653 25.7899 5.90703L24.3257 6.54116L25.1909 8.51029L24.5587 8.77729L22.4622 3.97128ZM24.0928 5.97378L25.3573 5.43978C26.0894 5.13941 26.2558 4.67216 26.0229 4.10478C25.7899 3.53741 25.3241 3.37053 24.5919 3.67091L23.3274 4.20491L24.0928 5.97378Z"
                fill="#1B3B36" />
            <path
                d="M22.4622 3.97128L24.5587 3.07015C25.5237 2.66965 26.2558 2.97003 26.6552 3.83778C27.0545 4.73891 26.755 5.50653 25.7899 5.90703L24.3257 6.54116L25.1909 8.51029L24.5587 8.77729L22.4622 3.97128ZM24.0928 5.97378L25.3573 5.43978C26.0894 5.13941 26.2558 4.67216 26.0229 4.10478C25.7899 3.53741 25.3241 3.37053 24.5919 3.67091L23.3274 4.20491L24.0928 5.97378Z"
                fill="black" fill-opacity="0.2" />
            <path
                d="M32.0798 0.700778L34.5091 0.333652C35.4742 0.200152 36.173 0.634028 36.2728 1.4684C36.3727 2.10253 36.173 2.63653 35.574 2.90353C36.2063 2.93691 36.3727 3.33741 36.5058 3.83803C36.6389 4.33866 36.6722 4.90603 37.0382 5.20641L36.2728 5.30653C36.0399 5.13966 36.0732 4.53891 35.9068 4.07166C35.7737 3.57103 35.574 3.17053 34.9085 3.27066L33.2446 3.53766L33.5773 5.74041L32.8785 5.84054L32.0798 0.700778ZM34.5424 2.77003C35.1747 2.66991 35.7071 2.43628 35.6073 1.66865C35.5407 1.16803 35.208 0.834278 34.5424 0.934403L32.8452 1.2014L33.1114 3.00366L34.5424 2.77003Z"
                fill="#1B3B36" />
            <path
                d="M32.0798 0.700778L34.5091 0.333652C35.4742 0.200152 36.173 0.634028 36.2728 1.4684C36.3727 2.10253 36.173 2.63653 35.574 2.90353C36.2063 2.93691 36.3727 3.33741 36.5058 3.83803C36.6389 4.33866 36.6722 4.90603 37.0382 5.20641L36.2728 5.30653C36.0399 5.13966 36.0732 4.53891 35.9068 4.07166C35.7737 3.57103 35.574 3.17053 34.9085 3.27066L33.2446 3.53766L33.5773 5.74041L32.8785 5.84054L32.0798 0.700778ZM34.5424 2.77003C35.1747 2.66991 35.7071 2.43628 35.6073 1.66865C35.5407 1.16803 35.208 0.834278 34.5424 0.934403L32.8452 1.2014L33.1114 3.00366L34.5424 2.77003Z"
                fill="black" fill-opacity="0.2" />
            <path
                d="M42.4624 0L46.0564 0.367126L45.9898 0.967877L43.0947 0.667501L42.9283 2.33625L45.6238 2.60325L45.5572 3.20401L42.8617 2.937L42.662 4.73926L45.5905 5.00626L45.5239 5.60701L41.9299 5.20651L42.4624 0Z"
                fill="#1B3B36" />
            <path
                d="M42.4624 0L46.0564 0.367126L45.9898 0.967877L43.0947 0.667501L42.9283 2.33625L45.6238 2.60325L45.5572 3.20401L42.8617 2.937L42.662 4.73926L45.5905 5.00626L45.5239 5.60701L41.9299 5.20651L42.4624 0Z"
                fill="black" fill-opacity="0.2" />
            <path
                d="M52.2797 1.80176L53.1782 2.16888L53.1117 6.87477L56.2731 3.40376L57.1716 3.77089L55.2415 8.64365L54.5759 8.34327L56.1732 4.27151L53.0451 7.74252L52.4794 7.50889L52.5459 2.83638L50.9486 6.90814L50.3496 6.67452L52.2797 1.80176Z"
                fill="#1B3B36" />
            <path
                d="M52.2797 1.80176L53.1782 2.16888L53.1117 6.87477L56.2731 3.40376L57.1716 3.77089L55.2415 8.64365L54.5759 8.34327L56.1732 4.27151L53.0451 7.74252L52.4794 7.50889L52.5459 2.83638L50.9486 6.90814L50.3496 6.67452L52.2797 1.80176Z"
                fill="black" fill-opacity="0.2" />
            <path d="M62.7285 7.0752L63.2942 7.4757L60.2659 11.7477L59.7002 11.3472L62.7285 7.0752Z" fill="#1B3B36" />
            <path d="M62.7285 7.0752L63.2942 7.4757L60.2659 11.7477L59.7002 11.3472L62.7285 7.0752Z" fill="black"
                fill-opacity="0.2" />
            <path
                d="M68.5864 16.954C67.6213 17.8551 66.5897 17.755 65.7245 16.7871C64.8259 15.7859 64.7594 14.7846 65.791 13.8501L68.2536 11.614L68.7195 12.1146L66.2236 14.3508C65.5248 14.9849 65.5248 15.7191 66.1238 16.3866C66.7228 17.0541 67.4216 17.0541 68.0872 16.4534L70.5497 14.2173L71.0156 14.7179L68.5864 16.954Z"
                fill="#1B3B36" />
            <path
                d="M68.5864 16.954C67.6213 17.8551 66.5897 17.755 65.7245 16.7871C64.8259 15.7859 64.7594 14.7846 65.791 13.8501L68.2536 11.614L68.7195 12.1146L66.2236 14.3508C65.5248 14.9849 65.5248 15.7191 66.1238 16.3866C66.7228 17.0541 67.4216 17.0541 68.0872 16.4534L70.5497 14.2173L71.0156 14.7179L68.5864 16.954Z"
                fill="black" fill-opacity="0.2" />
            <path
                d="M74.8433 20.2258L75.2759 21.0936L72.048 24.4978L76.7069 24.064L77.1395 24.9317L72.4473 27.2346L72.1478 26.6338L76.0746 24.7315L71.449 25.1653L71.1827 24.6313L74.3774 21.2605L70.4506 23.1628L70.1511 22.5621L74.8433 20.2258Z"
                fill="#1B3B36" />
            <path
                d="M74.8433 20.2258L75.2759 21.0936L72.048 24.4978L76.7069 24.064L77.1395 24.9317L72.4473 27.2346L72.1478 26.6338L76.0746 24.7315L71.449 25.1653L71.1827 24.6313L74.3774 21.2605L70.4506 23.1628L70.1511 22.5621L74.8433 20.2258Z"
                fill="black" fill-opacity="0.2" />
            <path
                d="M80.0013 38.4817L79.968 40.9514C79.968 41.9193 79.4023 42.5201 78.5704 42.5201C77.9381 42.5201 77.4389 42.2197 77.2725 41.5855C77.1394 42.1863 76.7068 42.3198 76.1744 42.3532C75.6752 42.3866 75.0762 42.3532 74.7434 42.6536V41.8859C74.9431 41.6857 75.5088 41.8192 76.0412 41.719C76.5404 41.6523 76.973 41.5522 77.0063 40.8513L77.0396 39.1492L74.81 39.1158V38.4149L80.0013 38.4817ZM77.572 40.5843C77.572 41.2518 77.7051 41.7858 78.4705 41.8192C78.9697 41.8192 79.369 41.5522 79.369 40.8847L79.4023 39.1492L77.572 39.1158V40.5843Z"
                fill="#1B3B36" />
            <path
                d="M80.0013 38.4817L79.968 40.9514C79.968 41.9193 79.4023 42.5201 78.5704 42.5201C77.9381 42.5201 77.4389 42.2197 77.2725 41.5855C77.1394 42.1863 76.7068 42.3198 76.1744 42.3532C75.6752 42.3866 75.0762 42.3532 74.7434 42.6536V41.8859C74.9431 41.6857 75.5088 41.8192 76.0412 41.719C76.5404 41.6523 76.973 41.5522 77.0063 40.8513L77.0396 39.1492L74.81 39.1158V38.4149L80.0013 38.4817ZM77.572 40.5843C77.572 41.2518 77.7051 41.7858 78.4705 41.8192C78.9697 41.8192 79.369 41.5522 79.369 40.8847L79.4023 39.1492L77.572 39.1158V40.5843Z"
                fill="black" fill-opacity="0.2" />
            <path
                d="M78.6022 51.0641C78.1363 52.6661 76.6388 53.1333 75.2744 52.7328C73.91 52.3323 72.8784 51.1642 73.311 49.5622C73.7769 47.9602 75.2744 47.493 76.6388 47.8935C78.0032 48.294 79.0348 49.4621 78.6022 51.0641ZM73.8768 49.7291C73.544 50.964 74.4425 51.765 75.4408 52.0653C76.4392 52.3657 77.6704 52.1321 78.0032 50.8972C78.336 49.6623 77.4375 48.8613 76.4392 48.561C75.4408 48.294 74.2428 48.4942 73.8768 49.7291Z"
                fill="#1B3B36" />
            <path
                d="M78.6022 51.0641C78.1363 52.6661 76.6388 53.1333 75.2744 52.7328C73.91 52.3323 72.8784 51.1642 73.311 49.5622C73.7769 47.9602 75.2744 47.493 76.6388 47.8935C78.0032 48.294 79.0348 49.4621 78.6022 51.0641ZM73.8768 49.7291C73.544 50.964 74.4425 51.765 75.4408 52.0653C76.4392 52.3657 77.6704 52.1321 78.0032 50.8972C78.336 49.6623 77.4375 48.8613 76.4392 48.561C75.4408 48.294 74.2428 48.4942 73.8768 49.7291Z"
                fill="black" fill-opacity="0.2" />
            <path
                d="M74.111 61.243C73.2458 62.6448 71.6817 62.6781 70.4504 61.9439C69.2524 61.2096 68.5536 59.7745 69.4521 58.3728C70.3173 56.971 71.8814 56.9376 73.1127 57.6719C74.3107 58.4061 75.0095 59.8079 74.111 61.243ZM69.9513 58.6731C69.2857 59.7745 69.918 60.8091 70.8165 61.3431C71.715 61.9105 72.913 62.0106 73.6118 60.9426C74.2774 59.8413 73.6451 58.8066 72.7466 58.2726C71.8481 57.7053 70.6168 57.5718 69.9513 58.6731Z"
                fill="#1B3B36" />
            <path
                d="M74.111 61.243C73.2458 62.6448 71.6817 62.6781 70.4504 61.9439C69.2524 61.2096 68.5536 59.7745 69.4521 58.3728C70.3173 56.971 71.8814 56.9376 73.1127 57.6719C74.3107 58.4061 75.0095 59.8079 74.111 61.243ZM69.9513 58.6731C69.2857 59.7745 69.918 60.8091 70.8165 61.3431C71.715 61.9105 72.913 62.0106 73.6118 60.9426C74.2774 59.8413 73.6451 58.8066 72.7466 58.2726C71.8481 57.7053 70.6168 57.5718 69.9513 58.6731Z"
                fill="black" fill-opacity="0.2" />
            <path
                d="M68.5851 68.2523L67.8863 68.8864L63.7266 66.7171L65.4237 71.1226L64.7249 71.7567L61.2307 67.8518L61.7299 67.4179L64.6251 70.6553L62.9279 66.3166L63.3605 65.9161L67.487 68.0854L64.5918 64.8481L65.091 64.4142L68.5851 68.2523Z"
                fill="#1B3B36" />
            <path
                d="M68.5851 68.2523L67.8863 68.8864L63.7266 66.7171L65.4237 71.1226L64.7249 71.7567L61.2307 67.8518L61.7299 67.4179L64.6251 70.6553L62.9279 66.3166L63.3605 65.9161L67.487 68.0854L64.5918 64.8481L65.091 64.4142L68.5851 68.2523Z"
                fill="black" fill-opacity="0.2" />
            <path
                d="M55.7081 75.3279C56.1074 75.9621 56.7064 76.0288 57.3387 75.7284C57.8711 75.4614 58.3037 75.0276 58.0042 74.3934C57.738 73.8261 56.9393 74.0931 56.0741 74.2933C55.2422 74.4936 54.377 74.5937 53.9111 73.6592C53.4119 72.6579 54.2106 71.7902 55.0758 71.3563C56.1407 70.8557 57.2721 70.9224 57.8379 72.0572L57.2388 72.3576C56.8395 71.5566 56.0408 71.5565 55.3087 71.8903C54.743 72.1573 54.2106 72.6579 54.5433 73.3254C54.8428 73.9596 55.6748 73.7259 56.5067 73.5257C57.3387 73.3254 58.2039 73.1586 58.6032 74.0263C59.0691 74.9942 58.4369 75.8286 57.5716 76.2291C56.6066 76.6963 55.6748 76.5962 55.1091 75.5949L55.7081 75.3279Z"
                fill="#1B3B36" />
            <path
                d="M55.7081 75.3279C56.1074 75.9621 56.7064 76.0288 57.3387 75.7284C57.8711 75.4614 58.3037 75.0276 58.0042 74.3934C57.738 73.8261 56.9393 74.0931 56.0741 74.2933C55.2422 74.4936 54.377 74.5937 53.9111 73.6592C53.4119 72.6579 54.2106 71.7902 55.0758 71.3563C56.1407 70.8557 57.2721 70.9224 57.8379 72.0572L57.2388 72.3576C56.8395 71.5566 56.0408 71.5565 55.3087 71.8903C54.743 72.1573 54.2106 72.6579 54.5433 73.3254C54.8428 73.9596 55.6748 73.7259 56.5067 73.5257C57.3387 73.3254 58.2039 73.1586 58.6032 74.0263C59.0691 74.9942 58.4369 75.8286 57.5716 76.2291C56.6066 76.6963 55.6748 76.5962 55.1091 75.5949L55.7081 75.3279Z"
                fill="black" fill-opacity="0.2" />
            <path d="M48.7181 74.6931L47.9194 74.8933L47.7197 74.0923L48.5184 73.8921L48.7181 74.6931Z"
                fill="#1B3B36" />
            <path d="M48.7181 74.6931L47.9194 74.8933L47.7197 74.0923L48.5184 73.8921L48.7181 74.6931Z" fill="black"
                fill-opacity="0.2" />
            <path
                d="M35.4084 80L33.5449 79.6996C33.079 79.6329 32.48 79.5328 32.2137 79.2991C31.9142 79.0321 31.7146 78.6316 31.7811 78.131C31.881 77.5636 32.2137 77.2299 32.7462 77.0964C32.1472 76.8627 31.8477 76.3287 31.9808 75.6946C32.1139 74.927 32.7795 74.2929 33.7778 74.4597L36.2736 74.8602L35.4084 80ZM35.1089 77.6638L33.7445 77.4301C32.9791 77.2966 32.6131 77.5302 32.5132 78.0643C32.3801 78.7651 32.8793 78.9654 33.4783 79.0655L34.8427 79.2991L35.1089 77.6638ZM35.475 75.2941L33.7445 75.0271C33.1455 74.927 32.7129 75.2274 32.6131 75.7947C32.5132 76.4622 33.0124 76.7292 33.5781 76.8294L35.1422 77.0964L35.475 75.2941Z"
                fill="#1B3B36" />
            <path
                d="M35.4084 80L33.5449 79.6996C33.079 79.6329 32.48 79.5328 32.2137 79.2991C31.9142 79.0321 31.7146 78.6316 31.7811 78.131C31.881 77.5636 32.2137 77.2299 32.7462 77.0964C32.1472 76.8627 31.8477 76.3287 31.9808 75.6946C32.1139 74.927 32.7795 74.2929 33.7778 74.4597L36.2736 74.8602L35.4084 80ZM35.1089 77.6638L33.7445 77.4301C32.9791 77.2966 32.6131 77.5302 32.5132 78.0643C32.3801 78.7651 32.8793 78.9654 33.4783 79.0655L34.8427 79.2991L35.1089 77.6638ZM35.475 75.2941L33.7445 75.0271C33.1455 74.927 32.7129 75.2274 32.6131 75.7947C32.5132 76.4622 33.0124 76.7292 33.5781 76.8294L35.1422 77.0964L35.475 75.2941Z"
                fill="black" fill-opacity="0.2" />
            <path
                d="M23.9925 76.8631L23.2937 76.5627L23.5599 70.9557L24.2588 71.2561L24.1256 72.9248L26.1556 73.8259L27.3203 72.6244L27.9859 72.9248L23.9925 76.8631ZM25.723 74.2598L24.0924 73.5256L23.8927 76.1288L25.723 74.2598Z"
                fill="#1B3B36" />
            <path
                d="M23.9925 76.8631L23.2937 76.5627L23.5599 70.9557L24.2588 71.2561L24.1256 72.9248L26.1556 73.8259L27.3203 72.6244L27.9859 72.9248L23.9925 76.8631ZM25.723 74.2598L24.0924 73.5256L23.8927 76.1288L25.723 74.2598Z"
                fill="black" fill-opacity="0.2" />
            <path
                d="M16.3741 72.5573L15.8084 72.0901L16.3408 67.0505L13.6786 70.3546L13.1794 69.9541L16.474 65.8823L17.073 66.3496L16.5405 71.3558L19.1695 68.0851L19.6686 68.4856L16.3741 72.5573Z"
                fill="#1B3B36" />
            <path
                d="M16.3741 72.5573L15.8084 72.0901L16.3408 67.0505L13.6786 70.3546L13.1794 69.9541L16.474 65.8823L17.073 66.3496L16.5405 71.3558L19.1695 68.0851L19.6686 68.4856L16.3741 72.5573Z"
                fill="black" fill-opacity="0.2" />
            <path
                d="M8.65136 65.0814L8.25202 64.514L10.3485 62.9788L6.68796 62.3446L6.15552 61.6104L9.15053 62.1778L10.3485 58.4731L10.8477 59.174L9.81608 62.2779L10.9808 62.5115L12.4783 61.4435L12.8776 62.0109L8.65136 65.0814Z"
                fill="#1B3B36" />
            <path
                d="M8.65136 65.0814L8.25202 64.514L10.3485 62.9788L6.68796 62.3446L6.15552 61.6104L9.15053 62.1778L10.3485 58.4731L10.8477 59.174L9.81608 62.2779L10.9808 62.5115L12.4783 61.4435L12.8776 62.0109L8.65136 65.0814Z"
                fill="black" fill-opacity="0.2" />
            <path
                d="M1.03199 49.4618L0.898881 48.7609L3.09522 48.3604L2.59605 45.657L0.399713 46.0575L0.266602 45.3567L5.39139 44.3888L5.52451 45.0897L3.16178 45.5235L3.66094 48.2269L6.02367 47.793L6.15678 48.4939L1.03199 49.4618Z"
                fill="#1B3B36" />
            <path
                d="M1.03199 49.4618L0.898881 48.7609L3.09522 48.3604L2.59605 45.657L0.399713 46.0575L0.266602 45.3567L5.39139 44.3888L5.52451 45.0897L3.16178 45.5235L3.66094 48.2269L6.02367 47.793L6.15678 48.4939L1.03199 49.4618Z"
                fill="black" fill-opacity="0.2" />
            <path
                d="M0.000362108 36.4786C0.133474 34.8098 1.53114 34.1089 2.96209 34.2091C4.39304 34.3092 5.62432 35.2771 5.45793 36.9458C5.32482 38.6146 3.92715 39.3154 2.4962 39.2153C1.09853 39.1152 -0.132749 38.1473 0.000362108 36.4786ZM4.89221 36.9124C4.99204 35.6442 3.96043 35.0101 2.89554 34.9099C1.83065 34.8098 0.699197 35.2437 0.599364 36.5119C0.49953 37.7802 1.53114 38.4143 2.59604 38.5144C3.62765 38.6479 4.7591 38.2141 4.89221 36.9124Z"
                fill="#1B3B36" />
            <path
                d="M0.000362108 36.4786C0.133474 34.8098 1.53114 34.1089 2.96209 34.2091C4.39304 34.3092 5.62432 35.2771 5.45793 36.9458C5.32482 38.6146 3.92715 39.3154 2.4962 39.2153C1.09853 39.1152 -0.132749 38.1473 0.000362108 36.4786ZM4.89221 36.9124C4.99204 35.6442 3.96043 35.0101 2.89554 34.9099C1.83065 34.8098 0.699197 35.2437 0.599364 36.5119C0.49953 37.7802 1.53114 38.4143 2.59604 38.5144C3.62765 38.6479 4.7591 38.2141 4.89221 36.9124Z"
                fill="black" fill-opacity="0.2" />
            <path
                d="M2.79607 26.9338L2.19707 28.5692L1.63135 28.3689L3.0623 24.4307L3.62802 24.6309L3.02902 26.2663L7.38842 27.8683L7.15547 28.5358L2.79607 26.9338Z"
                fill="#1B3B36" />
            <path
                d="M2.79607 26.9338L2.19707 28.5692L1.63135 28.3689L3.0623 24.4307L3.62802 24.6309L3.02902 26.2663L7.38842 27.8683L7.15547 28.5358L2.79607 26.9338Z"
                fill="black" fill-opacity="0.2" />
            <path
                d="M5.82251 19.1573L7.81918 16.1536L8.31835 16.4873L6.68773 18.9237L8.05213 19.8582L9.54963 17.5887L10.0488 17.9224L8.5513 20.1919L10.0488 21.1932L11.6794 18.7568L12.1786 19.0906L10.1486 22.1277L5.82251 19.1573Z"
                fill="#1B3B36" />
            <path
                d="M5.82251 19.1573L7.81918 16.1536L8.31835 16.4873L6.68773 18.9237L8.05213 19.8582L9.54963 17.5887L10.0488 17.9224L8.5513 20.1919L10.0488 21.1932L11.6794 18.7568L12.1786 19.0906L10.1486 22.1277L5.82251 19.1573Z"
                fill="black" fill-opacity="0.2" />
            <path
                d="M11.915 11.4472L12.4142 10.98L15.5423 14.4176L17.5723 12.5486L17.9716 12.9825L15.4092 15.3187L11.915 11.4472Z"
                fill="#1B3B36" />
            <path
                d="M11.915 11.4472L12.4142 10.98L15.5423 14.4176L17.5723 12.5486L17.9716 12.9825L15.4092 15.3187L11.915 11.4472Z"
                fill="black" fill-opacity="0.2" />

                
            <symbol id="arrow" viewBox="0 0 170 170">
                <path opacity="0.48"
                    d="M16.6589 134.653L0.525728 85L16.6589 35.3473L58.896 4.66025L111.104 4.66024L153.341 35.3473L169.474 85L153.341 134.653L111.104 165.34L58.896 165.34L16.6589 134.653Z"
                    fill="none" />
                <path
                    d="M90.5166 69.2754C90.5166 69.2754 91.7235 73.9019 95.3443 77.8676C98.9651 81.8332 105 85.1379 105 85.1379C105 85.1379 98.9651 88.4425 95.3443 92.4082C91.7235 96.3738 90.5166 101 90.5166 101"
                    fill="none" stroke="#313F38" stroke-width="2" />
                <rect x="65.3448" y="85.4901" width="0.689671" height="37.932" transform="rotate(-90 65.3448 85.4901)"
                    fill="#313F38" stroke="#313F38" stroke-width="0.689671" />
            </symbol>


<symbol id="label-gallery" viewBox="0 0 150 109">
            <g opacity="0.64">
                <path
                    d="M7.53566 108.828L5.85377 104.904C5.10626 103.097 5.66689 101.727 7.28649 100.979C8.96838 100.232 10.4011 100.792 11.1486 102.599L12.3322 105.34L16.0074 103.72L16.5058 104.904L7.53566 108.828ZM11.3355 105.776L10.3388 103.409C9.77819 102.038 8.90609 101.727 7.84712 102.163C6.78815 102.599 6.47669 103.471 7.03732 104.841L8.034 107.209L11.3355 105.776Z"
                    fill="#FFFCF6" />
                <path
                    d="M2.92781 96.7437L1.86884 92.2586C1.4328 90.4521 2.18031 89.144 3.67532 88.7702C4.79658 88.5211 5.91785 88.7702 6.47848 89.8292C6.41619 88.6456 7.16369 88.2719 8.09808 87.9604C9.03246 87.649 10.0914 87.4621 10.5898 86.7769L10.9012 88.2096C10.5898 88.6456 9.5308 88.7079 8.65871 89.0817C7.78662 89.4554 7.03911 89.8292 7.28828 91.075L8.03579 94.1897L12.0848 93.2553L12.3963 94.5011L2.92781 96.7437ZM6.35389 91.8226C6.10472 90.639 5.54409 89.7046 4.17366 90.0161C3.23928 90.2652 2.67864 90.8882 2.92781 92.0717L3.67532 95.2486L6.97682 94.4388L6.35389 91.8226Z"
                    fill="#FFFCF6" />
                <path
                    d="M0.373754 83.5371L-2.94072e-07 76.8095L1.12126 76.7472L1.43272 82.1667L4.54734 81.9798L4.23588 76.9341L5.35714 76.8718L5.60631 81.9798L8.9701 81.7929L8.65864 76.3112L9.7799 76.2489L10.1537 83.0388L0.373754 83.5371Z"
                    fill="#FFFCF6" />
                <path
                    d="M0.0623779 70.9541L0.311547 69.2099L8.8456 67.2165L1.12135 63.1052L1.37052 61.361L11.0881 62.6069L10.9012 63.8527L2.80324 62.7938L10.4652 66.9051L10.3406 68.0263L1.86886 69.9574L9.96686 71.0164L9.77999 72.2622L0.0623779 70.9541Z"
                    fill="#FFFCF6" />
                <path d="M2.92969 55.3824L3.30344 54.1365L12.7096 56.9397L12.3358 58.1855L2.92969 55.3824Z"
                    fill="#FFFCF6" />
                <path
                    d="M14.142 43.9202C16.3845 44.9168 17.0074 46.7856 15.9485 48.9659C14.8895 51.2707 13.2076 52.1428 10.8405 51.0215L5.17187 48.4052L5.73251 47.2217L11.4011 49.8379C12.9584 50.5855 14.2666 50.0248 14.9518 48.4675C15.637 46.9725 15.1387 45.7266 13.5813 45.0414L7.91274 42.4251L8.47337 41.2416L14.142 43.9202Z"
                    fill="#FFFCF6" />
                <path
                    d="M11.6487 35.7588L12.7077 34.3261L21.1794 36.6932L16.3829 29.3427L17.4419 27.91L25.353 33.7032L24.6055 34.6999L18.0648 29.9034L22.799 37.1916L22.1138 38.0637L13.7666 35.6966L20.3073 40.4931L19.5598 41.4897L11.6487 35.7588Z"
                    fill="#FFFCF6" />
                <path
                    d="M27.1594 18.2552L30.8347 15.5143C32.3297 14.393 33.8247 14.5176 34.7591 15.7635C35.4443 16.6979 35.6312 17.8191 34.8837 18.7535C35.9426 18.2552 36.6279 18.7535 37.2508 19.501C37.8737 20.2485 38.4966 21.1206 39.3064 21.3075L38.1229 22.1796C37.5622 22.055 37.1262 21.1206 36.3787 20.4354C35.6935 19.7502 35.0083 19.2518 34.0116 19.9994L31.4576 21.9304L33.9493 25.2942L32.8903 26.104L27.1594 18.2552ZM33.0772 19.4387C34.0739 18.6912 34.6968 17.8191 33.8247 16.6979C33.2641 15.9504 32.392 15.7012 31.4576 16.3864L28.8413 18.3175L30.897 21.0583L33.0772 19.4387Z"
                    fill="#FFFCF6" />
                <path
                    d="M41.9227 8.53724C44.7259 7.16681 47.2175 8.66183 48.4011 11.0912C49.5847 13.4583 49.2732 16.3861 46.47 17.7565C43.6669 19.127 41.1752 17.6319 39.9916 15.2025C38.7458 12.8354 39.1195 9.90768 41.9227 8.53724ZM45.9094 16.7598C48.0273 15.7009 48.0273 13.396 47.1553 11.6519C46.2832 9.90768 44.4767 8.47495 42.3587 9.53392C40.2408 10.5929 40.2408 12.8977 41.1129 14.6419C41.985 16.3861 43.7915 17.8188 45.9094 16.7598Z"
                    fill="#FFFCF6" />
                <path
                    d="M55.6272 3.42924C58.6172 2.61944 60.7974 4.61279 61.4827 7.16678C62.1679 9.72077 61.2958 12.5239 58.2435 13.3337C55.1911 14.1435 53.0732 12.1502 52.388 9.59618C51.7651 6.9799 52.6371 4.17675 55.6272 3.42924ZM57.9943 12.2748C60.2991 11.6518 60.7352 9.4093 60.2368 7.54053C59.7385 5.60947 58.2435 3.92758 55.9386 4.48821C53.6338 5.11113 53.1978 7.35366 53.6961 9.22243C54.1945 11.1535 55.6895 12.8354 57.9943 12.2748Z"
                    fill="#FFFCF6" />
                <path
                    d="M66.0937 1.49919L67.9002 1.37461L71.3886 9.41031L74.0672 1.06314L75.8737 0.93856L76.372 10.7185L75.1261 10.7808L74.6901 2.62045L72.0738 10.9053L70.9526 10.9676L67.4642 2.99421L67.9002 11.1545L66.6544 11.2168L66.0937 1.49919Z"
                    fill="#FFFCF6" />
                <path
                    d="M87.3976 4.98715C87.4599 3.55443 86.5878 2.86921 85.2797 2.68234C84.2207 2.55775 83.0372 2.74463 82.8503 4.05277C82.6634 5.23632 84.2207 5.67237 85.7157 6.233C87.2108 6.79363 88.7058 7.54113 88.3943 9.4722C88.0828 11.5278 85.9649 12.0885 84.2207 11.8393C82.0405 11.5278 80.3586 10.2197 80.6701 7.85259L81.9159 8.03947C81.6667 9.65907 82.9749 10.5935 84.4076 10.7803C85.5911 10.9672 86.8993 10.7803 87.0862 9.34762C87.273 8.03948 85.778 7.54114 84.283 6.9805C82.788 6.41987 81.293 5.73466 81.5421 3.99047C81.7913 1.99711 83.7224 1.37419 85.4666 1.62336C87.4599 1.87253 88.8303 3.05609 88.5812 5.17403L87.3976 4.98715Z"
                    fill="#FFFCF6" />
                <path d="M92.3814 11.7152L93.8141 12.1513L93.378 13.584L91.9453 13.1479L92.3814 11.7152Z"
                    fill="#FFFCF6" />
                <path
                    d="M108.515 8.97302L111.63 10.7172C112.377 11.1533 113.374 11.7139 113.685 12.2745C114.059 12.8974 114.184 13.7695 113.685 14.6416C113.187 15.576 112.315 15.9498 111.318 15.8252C112.253 16.635 112.377 17.7563 111.754 18.8152C111.069 20.0611 109.449 20.7463 107.768 19.8119L103.656 17.5071L108.515 8.97302ZM105.4 17.1333L108.266 18.7529C109.263 19.3136 110.197 19.0644 110.758 18.13C111.381 17.0087 110.633 16.1989 109.699 15.6383L107.082 14.2056L105.4 17.1333ZM107.581 13.2712L109.823 14.5793C111.131 15.3268 111.879 15.14 112.377 14.2679C113.062 13.0843 112.315 12.4614 111.318 11.9008L109.076 10.5926L107.581 13.2712Z"
                    fill="#FFFCF6" />
                <path
                    d="M122.031 17.7566L123.152 18.6909L119.851 28.6577L118.729 27.7233L119.788 24.7956L116.611 22.1793L113.871 23.7366L112.812 22.8645L122.031 17.7566ZM117.608 21.5564L120.162 23.6743L121.782 19.127L117.608 21.5564Z"
                    fill="#FFFCF6" />
                <path
                    d="M129.63 24.6713L130.502 25.7303L127.762 34.7626L133.804 29.6547L134.614 30.5891L127.139 36.9429L126.204 35.8839L128.883 26.9138L122.903 31.9595L122.093 31.0251L129.63 24.6713Z"
                    fill="#FFFCF6" />
                <path
                    d="M138.226 35.7602L138.849 36.8814L134.613 39.3108L141.34 41.1796L142.15 42.6123L136.668 40.9927L133.741 47.5957L132.931 46.163L135.485 40.619L133.367 39.9337L130.377 41.6156L129.754 40.4944L138.226 35.7602Z"
                    fill="#FFFCF6" />
                <path
                    d="M146.761 54.3842L147.072 55.63L142.961 56.6267L144.207 61.6101L148.318 60.6134L148.629 61.8592L139.099 64.1641L138.787 62.9182L143.148 61.8592L141.902 56.8759L137.541 57.9348L137.23 56.689L146.761 54.3842Z"
                    fill="#FFFCF6" />
                <path
                    d="M150 72.3249C150.125 75.4395 147.757 77.1214 145.079 77.246C142.4 77.3705 139.909 75.9378 139.722 72.8232C139.535 69.7086 141.964 68.0267 144.643 67.9021C147.321 67.7775 149.813 69.2102 150 72.3249ZM140.843 72.7609C140.968 75.128 143.085 76.0624 145.017 75.9378C146.948 75.8132 149.003 74.7543 148.879 72.3871C148.754 70.02 146.636 69.0857 144.705 69.2102C142.774 69.3348 140.718 70.3938 140.843 72.7609Z"
                    fill="#FFFCF6" />
                <path
                    d="M148.256 84.7211L148.692 81.4819L149.751 81.6065L148.754 89.3931L147.695 89.2685L148.131 86.0293L139.535 84.908L139.722 83.5999L148.256 84.7211Z"
                    fill="#FFFCF6" />
                <path
                    d="M147.634 94.3146L145.703 100.793L144.644 100.482L146.201 95.2489L143.211 94.3769L141.779 99.2357L140.72 98.9242L142.152 94.0654L138.913 93.131L137.356 98.4259L136.297 98.1144L138.228 91.5737L147.634 94.3146Z"
                    fill="#FFFCF6" />
                <path
                    d="M143.645 105.962L143.084 107.146L135.235 103.408L132.993 108.08L131.996 107.582L134.799 101.726L143.645 105.962Z"
                    fill="#FFFCF6" />
            </g>
            <path
                d="M73.098 53.631C72.9191 52.2355 74.0063 51 75.4133 51C76.7264 51 77.7411 52.1531 77.5741 53.4556L75.3248 71L73.098 53.631Z"
                fill="#FCD043" />
            <path
                d="M92.6923 68.7729C94.0878 68.5939 95.3232 69.6811 95.3232 71.0881C95.3232 72.4012 94.1701 73.4159 92.8677 73.2489L75.3232 70.9996L92.6923 68.7729Z"
                fill="#FCD043" />
            <path
                d="M86.0842 57.2024C86.9445 56.0891 88.5868 55.9843 89.5817 56.9791C90.5102 57.9077 90.4123 59.4405 89.3733 60.2435L75.377 71.0587L86.0842 57.2024Z"
                fill="#FCD043" />
            <path
                d="M89.24 81.7687C90.3533 82.629 90.4581 84.2714 89.4633 85.2662C88.5347 86.1948 87.0019 86.0969 86.1989 85.0578L75.3836 71.0616L89.24 81.7687Z"
                fill="#FCD043" />
            <path
                d="M77.5484 88.369C77.7274 89.7645 76.6402 91 75.2332 91C73.9201 91 72.9054 89.8469 73.0724 88.5444L75.3216 71L77.5484 88.369Z"
                fill="#FCD043" />
            <path
                d="M57.9542 73.2271C56.5587 73.4061 55.3232 72.3189 55.3232 70.9119C55.3232 69.5988 56.4763 68.5841 57.7788 68.7511L75.3232 71.0004L57.9542 73.2271Z"
                fill="#FCD043" />
            <path
                d="M64.6717 84.9167C63.8114 86.03 62.1691 86.1349 61.1742 85.14C60.2457 84.2115 60.3435 82.6786 61.3826 81.8757L75.3788 71.0604L64.6717 84.9167Z"
                fill="#FCD043" />
            <path
                d="M61.5237 60.3514C60.4104 59.4911 60.3056 57.8487 61.3004 56.8539C62.229 55.9253 63.7618 56.0232 64.5647 57.0623L75.38 71.0585L61.5237 60.3514Z"
                fill="#FCD043" />
        </symbol>



<symbol id="label-roomEqpt" viewBox="0 0 32 32">
<path fill="#1b3b36" style="fill: var(--color1, #1b3b36)" d="M0.927 14.361l0.276-0.689c0.13-0.314 0.368-0.414 0.659-0.306 0.299 0.115 0.406 0.36 0.276 0.674l-0.191 0.483 0.651 0.253-0.084 0.207-1.586-0.621zM1.77 14.453l0.169-0.414c0.099-0.238 0.031-0.383-0.153-0.46s-0.329-0.008-0.429 0.23l-0.169 0.414 0.582 0.23z"></path>
<path fill="#000" style="fill: var(--color2, #000)" opacity="0.2" d="M0.927 14.361l0.276-0.689c0.13-0.314 0.368-0.414 0.659-0.306 0.299 0.115 0.406 0.36 0.276 0.674l-0.191 0.483 0.651 0.253-0.084 0.207-1.586-0.621zM1.77 14.453l0.169-0.414c0.099-0.238 0.031-0.383-0.153-0.46s-0.329-0.008-0.429 0.23l-0.169 0.414 0.582 0.23z"></path>
<path fill="#1b3b36" style="fill: var(--color1, #1b3b36)" d="M1.846 12.308l0.421-0.682c0.169-0.276 0.421-0.345 0.651-0.207 0.169 0.107 0.276 0.276 0.214 0.475 0.138-0.153 0.276-0.107 0.429-0.031s0.306 0.184 0.452 0.161l-0.138 0.215c-0.092 0.015-0.23-0.107-0.383-0.169s-0.291-0.107-0.414 0.077l-0.291 0.475 0.613 0.383-0.115 0.192-1.44-0.889zM2.873 12.124c0.115-0.176 0.161-0.36-0.046-0.49-0.146-0.084-0.291-0.077-0.406 0.1l-0.299 0.483 0.506 0.306 0.245-0.398z"></path>
<path fill="#000" style="fill: var(--color2, #000)" opacity="0.2" d="M1.846 12.308l0.421-0.682c0.169-0.276 0.421-0.345 0.651-0.207 0.169 0.107 0.276 0.276 0.214 0.475 0.138-0.153 0.276-0.107 0.429-0.031s0.306 0.184 0.452 0.161l-0.138 0.215c-0.092 0.015-0.23-0.107-0.383-0.169s-0.291-0.107-0.414 0.077l-0.291 0.475 0.613 0.383-0.115 0.192-1.44-0.889zM2.873 12.124c0.115-0.176 0.161-0.36-0.046-0.49-0.146-0.084-0.291-0.077-0.406 0.1l-0.299 0.483 0.506 0.306 0.245-0.398z"></path>
<path fill="#1b3b36" style="fill: var(--color1, #1b3b36)" d="M3.156 10.37l0.781-0.873 0.146 0.13-0.628 0.705 0.406 0.36 0.582-0.659 0.145 0.13-0.597 0.659 0.437 0.391 0.636-0.713 0.146 0.13-0.789 0.881-1.264-1.141z"></path>
<path fill="#000" style="fill: var(--color2, #000)" opacity="0.2" d="M3.156 10.37l0.781-0.873 0.146 0.13-0.628 0.705 0.406 0.36 0.582-0.659 0.145 0.13-0.597 0.659 0.437 0.391 0.636-0.713 0.146 0.13-0.789 0.881-1.264-1.141z"></path>
<path fill="#1b3b36" style="fill: var(--color1, #1b3b36)" d="M4.665 8.784l0.245-0.184 1.295 0.804-0.444-1.456 0.245-0.184 1.042 1.348-0.176 0.13-0.866-1.126 0.437 1.448-0.153 0.123-1.279-0.804 0.866 1.126-0.176 0.13-1.034-1.356z"></path>
<path fill="#000" style="fill: var(--color2, #000)" opacity="0.2" d="M4.665 8.784l0.245-0.184 1.295 0.804-0.444-1.456 0.245-0.184 1.042 1.348-0.176 0.13-0.866-1.126 0.437 1.448-0.153 0.123-1.279-0.804 0.866 1.126-0.176 0.13-1.034-1.356z"></path>
<path fill="#1b3b36" style="fill: var(--color1, #1b3b36)" d="M6.933 7.222l0.199-0.107 0.812 1.502-0.199 0.107-0.812-1.501z"></path>
<path fill="#000" style="fill: var(--color2, #000)" opacity="0.2" d="M6.933 7.222l0.199-0.107 0.812 1.502-0.199 0.107-0.812-1.501z"></path>
<path fill="#1b3b36" style="fill: var(--color1, #1b3b36)" d="M9.721 7.191c0.153 0.398 0 0.705-0.398 0.843-0.414 0.153-0.728 0.054-0.881-0.375l-0.375-1.019 0.215-0.077 0.375 1.019c0.1 0.283 0.329 0.375 0.605 0.268 0.268-0.099 0.36-0.314 0.253-0.59l-0.375-1.019 0.214-0.077 0.368 1.026z"></path>
<path fill="#000" style="fill: var(--color2, #000)" opacity="0.2" d="M9.721 7.191c0.153 0.398 0 0.705-0.398 0.843-0.414 0.153-0.728 0.054-0.881-0.375l-0.375-1.019 0.215-0.077 0.375 1.019c0.1 0.283 0.329 0.375 0.605 0.268 0.268-0.099 0.36-0.314 0.253-0.59l-0.375-1.019 0.214-0.077 0.368 1.026z"></path>
<path fill="#1b3b36" style="fill: var(--color1, #1b3b36)" d="M10.418 5.881l0.306-0.046 0.751 1.333 0.314-1.494 0.306-0.046 0.26 1.685-0.214 0.031-0.214-1.394-0.314 1.478-0.191 0.023-0.735-1.318 0.214 1.394-0.214 0.031-0.268-1.678z"></path>
<path fill="#000" style="fill: var(--color2, #000)" opacity="0.2" d="M10.418 5.881l0.306-0.046 0.751 1.333 0.314-1.494 0.306-0.046 0.26 1.685-0.214 0.031-0.214-1.394-0.314 1.478-0.191 0.023-0.735-1.318 0.214 1.394-0.214 0.031-0.268-1.678z"></path>
<path fill="#1b3b36" style="fill: var(--color1, #1b3b36)" d="M14.478 5.636l0.789 0.115c0.322 0.046 0.49 0.245 0.452 0.513-0.031 0.199-0.146 0.36-0.352 0.383 0.191 0.069 0.214 0.214 0.199 0.383s-0.046 0.352 0.031 0.475l-0.253-0.038c-0.054-0.084 0.008-0.253 0-0.429 0-0.169-0.023-0.314-0.237-0.345l-0.551-0.077-0.107 0.72-0.23-0.031 0.26-1.67zM15.060 6.509c0.214 0.031 0.398 0 0.429-0.245 0.023-0.161-0.054-0.299-0.253-0.329l-0.559-0.084-0.084 0.59 0.467 0.069z"></path>
<path fill="#000" style="fill: var(--color2, #000)" opacity="0.2" d="M14.478 5.636l0.789 0.115c0.322 0.046 0.49 0.245 0.452 0.513-0.031 0.199-0.146 0.36-0.352 0.383 0.191 0.069 0.214 0.214 0.199 0.383s-0.046 0.352 0.031 0.475l-0.253-0.038c-0.054-0.084 0.008-0.253 0-0.429 0-0.169-0.023-0.314-0.237-0.345l-0.551-0.077-0.107 0.72-0.23-0.031 0.26-1.67zM15.060 6.509c0.214 0.031 0.398 0 0.429-0.245 0.023-0.161-0.054-0.299-0.253-0.329l-0.559-0.084-0.084 0.59 0.467 0.069z"></path>
<path fill="#1b3b36" style="fill: var(--color1, #1b3b36)" d="M17.489 6.256c0.513 0.176 0.636 0.666 0.483 1.111-0.146 0.437-0.544 0.758-1.057 0.582s-0.636-0.667-0.483-1.111c0.138-0.444 0.544-0.758 1.057-0.582zM16.968 7.758c0.391 0.13 0.674-0.153 0.781-0.475s0.061-0.72-0.329-0.85c-0.391-0.13-0.674 0.153-0.781 0.475s-0.061 0.72 0.329 0.85z"></path>
<path fill="#000" style="fill: var(--color2, #000)" opacity="0.2" d="M17.489 6.256c0.513 0.176 0.636 0.666 0.483 1.111-0.146 0.437-0.544 0.758-1.057 0.582s-0.636-0.667-0.483-1.111c0.138-0.444 0.544-0.758 1.057-0.582zM16.968 7.758c0.391 0.13 0.674-0.153 0.781-0.475s0.061-0.72-0.329-0.85c-0.391-0.13-0.674 0.153-0.781 0.475s-0.061 0.72 0.329 0.85z"></path>
<path fill="#1b3b36" style="fill: var(--color1, #1b3b36)" d="M19.802 7.314c0.467 0.268 0.49 0.781 0.261 1.18s-0.682 0.636-1.157 0.36c-0.475-0.276-0.49-0.781-0.261-1.18 0.245-0.398 0.697-0.636 1.157-0.36zM19.005 8.692c0.36 0.207 0.69-0.015 0.858-0.306 0.176-0.299 0.199-0.689-0.153-0.904-0.36-0.207-0.689 0.015-0.858 0.306-0.176 0.299-0.199 0.689 0.153 0.904z"></path>
<path fill="#000" style="fill: var(--color2, #000)" opacity="0.2" d="M19.802 7.314c0.467 0.268 0.49 0.781 0.261 1.18s-0.682 0.636-1.157 0.36c-0.475-0.276-0.49-0.781-0.261-1.18 0.245-0.398 0.697-0.636 1.157-0.36zM19.005 8.692c0.36 0.207 0.69-0.015 0.858-0.306 0.176-0.299 0.199-0.689-0.153-0.904-0.36-0.207-0.689 0.015-0.858 0.306-0.176 0.299-0.199 0.689 0.153 0.904z"></path>
<path fill="#1b3b36" style="fill: var(--color1, #1b3b36)" d="M21.327 8.363l0.238 0.207-0.559 1.417 1.356-0.697 0.237 0.207-1.141 1.264-0.161-0.146 0.95-1.057-1.341 0.697-0.146-0.13 0.551-1.41-0.95 1.057-0.161-0.145 1.126-1.264z"></path>
<path fill="#000" style="fill: var(--color2, #000)" opacity="0.2" d="M21.327 8.363l0.238 0.207-0.559 1.417 1.356-0.697 0.237 0.207-1.141 1.264-0.161-0.146 0.95-1.057-1.341 0.697-0.146-0.13 0.551-1.41-0.95 1.057-0.161-0.145 1.126-1.264z"></path>
<path fill="#1b3b36" style="fill: var(--color1, #1b3b36)" d="M23.518 11.412c0.184-0.169 0.161-0.36 0.023-0.544-0.115-0.146-0.283-0.268-0.467-0.13-0.169 0.123-0.031 0.368 0.084 0.621s0.207 0.529-0.069 0.728c-0.291 0.214-0.621 0.023-0.804-0.222-0.23-0.306-0.276-0.674 0.054-0.927l0.13 0.176c-0.23 0.169-0.184 0.444-0.031 0.643 0.122 0.169 0.306 0.306 0.506 0.153 0.184-0.138 0.061-0.383-0.054-0.636s-0.214-0.521 0.031-0.705c0.276-0.214 0.59-0.054 0.774 0.191 0.215 0.276 0.238 0.59-0.054 0.82l-0.123-0.169z"></path>
<path fill="#000" style="fill: var(--color2, #000)" opacity="0.2" d="M23.518 11.412c0.184-0.169 0.161-0.36 0.023-0.544-0.115-0.146-0.283-0.268-0.467-0.13-0.169 0.123-0.031 0.368 0.084 0.621s0.207 0.529-0.069 0.728c-0.291 0.214-0.621 0.023-0.804-0.222-0.23-0.306-0.276-0.674 0.054-0.927l0.13 0.176c-0.23 0.169-0.184 0.444-0.031 0.643 0.122 0.169 0.306 0.306 0.506 0.153 0.184-0.138 0.061-0.383-0.054-0.636s-0.214-0.521 0.031-0.705c0.276-0.214 0.59-0.054 0.774 0.191 0.215 0.276 0.238 0.59-0.054 0.82l-0.123-0.169z"></path>
<path fill="#1b3b36" style="fill: var(--color1, #1b3b36)" d="M23.303 12.852l0.122 0.23-0.23 0.123-0.123-0.23 0.23-0.123z"></path>
<path fill="#000" style="fill: var(--color2, #000)" opacity="0.2" d="M23.303 12.852l0.122 0.23-0.23 0.123-0.123-0.23 0.23-0.123z"></path>
<path fill="#1b3b36" style="fill: var(--color1, #1b3b36)" d="M25.624 14.499l0.169 0.598c0.038 0.146 0.092 0.337 0.061 0.444-0.031 0.122-0.122 0.245-0.291 0.291-0.176 0.054-0.329-0.008-0.437-0.146 0.015 0.215-0.107 0.368-0.314 0.421-0.237 0.069-0.521-0.046-0.613-0.368l-0.222-0.789 1.647-0.452zM24.238 15.12l0.153 0.551c0.054 0.192 0.199 0.276 0.383 0.23 0.214-0.061 0.222-0.253 0.176-0.437l-0.146-0.498-0.567 0.153zM24.981 14.913l0.115 0.437c0.069 0.253 0.184 0.322 0.352 0.276 0.23-0.061 0.214-0.23 0.161-0.421l-0.115-0.437-0.513 0.146z"></path>
<path fill="#000" style="fill: var(--color2, #000)" opacity="0.2" d="M25.624 14.499l0.169 0.598c0.038 0.146 0.092 0.337 0.061 0.444-0.031 0.122-0.122 0.245-0.291 0.291-0.176 0.054-0.329-0.008-0.437-0.146 0.015 0.215-0.107 0.368-0.314 0.421-0.237 0.069-0.521-0.046-0.613-0.368l-0.222-0.789 1.647-0.452zM24.238 15.12l0.153 0.551c0.054 0.192 0.199 0.276 0.383 0.23 0.214-0.061 0.222-0.253 0.176-0.437l-0.146-0.498-0.567 0.153zM24.981 14.913l0.115 0.437c0.069 0.253 0.184 0.322 0.352 0.276 0.23-0.061 0.214-0.23 0.161-0.421l-0.115-0.437-0.513 0.146z"></path>
<path fill="#1b3b36" style="fill: var(--color1, #1b3b36)" d="M26.206 17.241l0.023 0.253-1.632 0.82-0.023-0.253 0.49-0.23-0.069-0.712-0.529-0.146-0.023-0.238 1.762 0.506zM25.195 17.165l0.054 0.574 0.758-0.36-0.812-0.214z"></path>
<path fill="#000" style="fill: var(--color2, #000)" opacity="0.2" d="M26.206 17.241l0.023 0.253-1.632 0.82-0.023-0.253 0.49-0.23-0.069-0.712-0.529-0.146-0.023-0.238 1.762 0.506zM25.195 17.165l0.054 0.574 0.758-0.36-0.812-0.214z"></path>
<path fill="#1b3b36" style="fill: var(--color1, #1b3b36)" d="M26.29 19.026l-0.023 0.238-1.448 0.774 1.371 0.115-0.015 0.214-1.701-0.138 0.015-0.245 1.433-0.774-1.356-0.115 0.015-0.215 1.708 0.146z"></path>
<path fill="#000" style="fill: var(--color2, #000)" opacity="0.2" d="M26.29 19.026l-0.023 0.238-1.448 0.774 1.371 0.115-0.015 0.214-1.701-0.138 0.015-0.245 1.433-0.774-1.356-0.115 0.015-0.215 1.708 0.146z"></path>
<path fill="#1b3b36" style="fill: var(--color1, #1b3b36)" d="M25.984 21.447l-0.061 0.214-0.82-0.222 0.598 1.057-0.077 0.276-0.475-0.873-1.172 0.452 0.077-0.276 0.996-0.368-0.176-0.345-0.574-0.161 0.061-0.214 1.624 0.46z"></path>
<path fill="#000" style="fill: var(--color2, #000)" opacity="0.2" d="M25.984 21.447l-0.061 0.214-0.82-0.222 0.598 1.057-0.077 0.276-0.475-0.873-1.172 0.452 0.077-0.276 0.996-0.368-0.176-0.345-0.574-0.161 0.061-0.214 1.624 0.46z"></path>
<path fill="#1b3b36" style="fill: var(--color1, #1b3b36)" d="M24.743 24.787l-0.115 0.192-0.628-0.383-0.46 0.766 0.628 0.383-0.115 0.192-1.455-0.889 0.115-0.191 0.666 0.406 0.46-0.766-0.666-0.406 0.115-0.191 1.455 0.889z"></path>
<path fill="#000" style="fill: var(--color2, #000)" opacity="0.2" d="M24.743 24.787l-0.115 0.192-0.628-0.383-0.46 0.766 0.628 0.383-0.115 0.192-1.455-0.889 0.115-0.191 0.666 0.406 0.46-0.766-0.666-0.406 0.115-0.191 1.455 0.889z"></path>
<path fill="#1b3b36" style="fill: var(--color1, #1b3b36)" d="M22.935 27.391c-0.368 0.398-0.866 0.314-1.21 0s-0.475-0.797-0.115-1.203c0.36-0.406 0.866-0.314 1.21 0s0.475 0.797 0.115 1.203zM21.755 26.319c-0.276 0.306-0.13 0.682 0.123 0.904s0.636 0.345 0.912 0.038c0.276-0.306 0.13-0.682-0.123-0.904s-0.636-0.345-0.912-0.038z"></path>
<path fill="#000" style="fill: var(--color2, #000)" opacity="0.2" d="M22.935 27.391c-0.368 0.398-0.866 0.314-1.21 0s-0.475-0.797-0.115-1.203c0.36-0.406 0.866-0.314 1.21 0s0.475 0.797 0.115 1.203zM21.755 26.319c-0.276 0.306-0.13 0.682 0.123 0.904s0.636 0.345 0.912 0.038c0.276-0.306 0.13-0.682-0.123-0.904s-0.636-0.345-0.912-0.038z"></path>
<path fill="#1b3b36" style="fill: var(--color1, #1b3b36)" d="M21.197 28.701l0.452-0.345 0.115 0.146-1.080 0.835-0.115-0.145 0.452-0.345-0.919-1.195 0.184-0.138 0.911 1.187z"></path>
<path fill="#000" style="fill: var(--color2, #000)" opacity="0.2" d="M21.197 28.701l0.452-0.345 0.115 0.146-1.080 0.835-0.115-0.145 0.452-0.345-0.919-1.195 0.184-0.138 0.911 1.187z"></path>
<path fill="#1b3b36" style="fill: var(--color1, #1b3b36)" d="M19.94 29.805l-1.034 0.559-0.092-0.169 0.835-0.452-0.261-0.475-0.774 0.421-0.092-0.169 0.774-0.421-0.283-0.513-0.843 0.46-0.092-0.169 1.042-0.567 0.82 1.494z"></path>
<path fill="#000" style="fill: var(--color2, #000)" opacity="0.2" d="M19.94 29.805l-1.034 0.559-0.092-0.169 0.835-0.452-0.261-0.475-0.774 0.421-0.092-0.169 0.774-0.421-0.283-0.513-0.843 0.46-0.092-0.169 1.042-0.567 0.82 1.494z"></path>
<path fill="#1b3b36" style="fill: var(--color1, #1b3b36)" d="M18.017 30.746l-0.215 0.077-0.506-1.425-0.85 0.299-0.061-0.184 1.065-0.375 0.567 1.609z"></path>
<path fill="#000" style="fill: var(--color2, #000)" opacity="0.2" d="M18.017 30.746l-0.215 0.077-0.506-1.425-0.85 0.299-0.061-0.184 1.065-0.375 0.567 1.609z"></path>
<path fill="#fcd043" style="fill: var(--color3, #fcd043)" d="M15.778 15.635c0.075-0.096 0.191-0.158 0.321-0.158 0.112 0 0.214 0.045 0.287 0.119v0c0.162 0.161 0.145 0.428-0.036 0.568l-2.434 1.881 1.862-2.41z"></path>
<path fill="#fcd043" style="fill: var(--color3, #fcd043)" d="M16.325 19.907c0.096 0.075 0.158 0.191 0.158 0.321 0 0.112-0.045 0.214-0.119 0.287v0c-0.069 0.069-0.163 0.111-0.268 0.111-0.122 0-0.23-0.057-0.299-0.146l-0.001-0.001-1.881-2.434 2.41 1.862z"></path>
<path fill="#fcd043" style="fill: var(--color3, #fcd043)" d="M16.935 17.671c0.015-0.002 0.033-0.003 0.052-0.003 0.224 0 0.406 0.182 0.406 0.406v0c0 0 0 0 0 0 0 0.209-0.17 0.379-0.379 0.379-0.017 0-0.034-0.001-0.050-0.003l0.002 0-3.051-0.391 3.021-0.387zM14.302 21.081c0.002 0.015 0.003 0.033 0.003 0.052 0 0.224-0.182 0.406-0.406 0.406v0c-0.209-0-0.379-0.17-0.379-0.379 0-0.017 0.001-0.034 0.003-0.050l-0 0.002 0.391-3.051 0.387 3.021zM12.053 20.455c-0.075 0.096-0.191 0.158-0.321 0.158-0.112 0-0.214-0.045-0.287-0.119v0c-0.069-0.069-0.111-0.163-0.111-0.268 0-0.122 0.057-0.23 0.146-0.299l0.001-0.001 2.434-1.881-1.862 2.41z"></path>
<path fill="#fcd043" style="fill: var(--color3, #fcd043)" d="M11.505 16.183c-0.096-0.075-0.158-0.191-0.158-0.321 0-0.112 0.045-0.213 0.119-0.287v0c0.069-0.069 0.163-0.111 0.268-0.111 0.122 0 0.23 0.057 0.299 0.146l0.001 0.001 1.881 2.434-2.41-1.862zM10.894 18.446c-0.016 0.002-0.034 0.003-0.052 0.003-0.224 0-0.406-0.182-0.406-0.406 0 0 0 0 0-0v0c0-0.209 0.17-0.379 0.379-0.379 0.017 0 0.034 0.001 0.050 0.003l-0.002-0 3.051 0.391-3.021 0.387z"></path>
<path fill="#fcd043" style="fill: var(--color3, #fcd043)" d="M13.528 15.038c-0.002-0.015-0.003-0.033-0.003-0.051 0-0.224 0.182-0.406 0.406-0.406v0c0.209 0 0.379 0.17 0.379 0.379 0 0.017-0.001 0.034-0.003 0.050l0-0.002-0.391 3.051-0.387-3.021z"></path>
</symbol>

            <symbol id="arrow-right" viewBox="0 0 47 22" fill='none'>
                <path
                    d="M35.1719 1C35.1719 1 35.944 3.91667 38.2604 6.41667C40.5767 8.91667 44.4373 11 44.4373 11C44.4373 11 40.5767 13.0833 38.2604 15.5833C35.944 18.0833 35.1719 21 35.1719 21"
                    stroke="currentColor" stroke-width="2" />
                <rect x="0.285714" y="11.2856" width="0.571428" height="42.9196"
                    transform="rotate(-90 0.285714 11.2856)" fill="currentColor" stroke="currentColor"
                    stroke-width="0.571428" />
            </symbol>

            <symbol id="line" viewBox="0 0 1024 301">
                <path
                    d="M1154.05 70.2667C1085.37 11.2991 897.713 -64.6111 696.583 103.488C445.172 313.612 139.999 414.762 -130.214 98.4339"
                    stroke="#FCD043" stroke-width="0.8" fill="none" />
            </symbol>
            <symbol id="menu-burger" viewBox="0 0 128 32">
                <path fill="#fffcf6" style="fill: var(--color1, #fffcf6)" d="M0 0h128v3.2h-128zM0 28.8h128v3.2h-128z">
                </path>
            </symbol>
            <symbol id="star-8" viewBox="0 0 71 72">
                <path
                    d="M35.3555 10.9999L38.0071 33.3482L60.3555 35.9999L38.0071 38.6515L35.3555 60.9999L32.7038 38.6515L10.3555 35.9999L32.7038 33.3482L35.3555 10.9999Z"
                    fill="#FCD043" />
                <path
                    d="M17.6777 18.3221L35.3554 32.2498L53.0331 18.3221L39.1054 35.9998L53.0331 53.6774L35.3554 39.7497L17.6777 53.6774L31.6054 35.9998L17.6777 18.3221Z"
                    fill="#FCD043" />
            </symbol>
            <symbol id="star-16" viewBox="0 0 150 149">
                <path
                    d="M75 0L80.4577 49.3236L105.505 6.48409L90.4294 53.7633L130.736 24.8152L97.7332 61.875L146.329 51.8237L101.106 72.2561L149.589 82.8396L99.9652 83.1117L139.952 112.5L94.5076 92.5647L119.084 135.676L85.6768 98.9806L90.5934 148.361L75 101.25L59.4066 148.361L64.3232 98.9806L30.9161 135.676L55.4924 92.5647L10.0481 112.5L50.0348 83.1117L0.410858 82.8396L48.8938 72.2561L3.67076 51.8237L52.2668 61.875L19.2641 24.8152L59.5706 53.7633L44.4948 6.48409L69.5423 49.3236L75 0Z"
                    fill="#FCD043" />
            </symbol>
            <symbol id="menu-close" viewBox="0 0 32 32">
                <path fill="#fffcf6" style="fill: var(--color1, #fffcf6)"
                    d="M0.78 0.005l31.21 31.21-0.78 0.78-31.21-31.21 0.78-0.78z"></path>
                <path fill="#fffcf6" style="fill: var(--color1, #fffcf6)"
                    d="M31.211 0.005l-31.21 31.21 0.78 0.78 31.21-31.21-0.78-0.78z"></path>
            </symbol>

            <symbol id="wave-Lg" viewBox="0 0 1920 563" fill="none">
                <path opacity="0.6"
                    d="M2345.86 130.875C2217.07 20.3109 1865.21 -122.021 1488.1 193.165C1016.7 587.147 444.5 776.804 -62.1477 183.689"
                    stroke="#FCD043" />
            </symbol>
            <symbol id="wave-maxLg" viewBox="0 0 1024 257" fill="none">
                <path opacity="0.6"
                    d="M1268 60.0742C1195.48 9.78365 997.341 -54.9566 784.977 88.407C519.523 267.612 197.305 353.878 -87.9999 84.0968"
                    stroke="#FCD043" />
            </symbol>
            <symbol id="wave-maxMd" viewBox="0 0 375 189" fill="none">
                <path
                    d="M432.971 44.3211C404.485 7.44134 326.662 -40.0349 243.25 65.0985C138.985 196.515 12.424 259.777 -99.6377 61.9376"
                    stroke="#FCD043" />
            </symbol>
            <symbol id="wave-maxSm" width="375" height="189" viewBox="0 0 375 189" fill="none">
                <path
                    d="M432.971 44.3211C404.485 7.44134 326.662 -40.0349 243.25 65.0985C138.985 196.515 12.424 259.777 -99.6377 61.9376"
                    stroke="#FCD043" />
            </symbol>
            <symbol id="wave-room-page-1" viewBox="0 0 2408 641" fill="none">
                <path opacity="0.12"
                    d="M2345.86 130.875C2217.07 20.3109 1865.21 -122.021 1488.1 193.165C1016.7 587.147 444.5 776.804 -62.1477 183.689"
                    stroke="#fffcf6" />
            </symbol>
            <symbol id="wave-room-page-2" viewBox="0 0 375 189" fill=" none">
                <path opacity="0.12"
                    d="M432.971 44.3211C404.485 7.44134 326.662 -40.0349 243.25 65.0985C138.985 196.515 12.424 259.777 -99.6377 61.9376"
                    stroke="#fffcf6" />
            </symbol>
            <symbol id="wave-hero-rooms" viewBox="0 0 375 189" fill="none">
                <path
                    d="M478 44.3211C446.552 7.44134 360.634 -40.0349 268.548 65.0985C153.439 196.515 13.7161 259.777 -110 61.9376"
                    stroke="#FCD043" />
            </symbol>

    </defs>
</svg>